<?xml version="1.0" standalone="no"?>
<!DOCTYPE svg PUBLIC "-//W3C//DTD SVG 20010904//EN"
 "http://www.w3.org/TR/2001/REC-SVG-20010904/DTD/svg10.dtd">
<svg version="1.0" xmlns="http://www.w3.org/2000/svg"
 width="1024.000000pt" height="1024.000000pt" viewBox="0 0 1024.000000 1024.000000"
 preserveAspectRatio="xMidYMid meet">

<g transform="translate(0.000000,1024.000000) scale(0.100000,-0.100000)"
fill="#000000" stroke="none">
<path d="M0 5120 l0 -5120 5120 0 5120 0 0 5120 0 5120 -5120 0 -5120 0 0
-5120z m4205 4421 c28 -6 27 -7 -19 -14 -51 -7 -78 -1 -55 14 16 10 30 10 74
0z m-1170 -21 c-3 -5 -18 -9 -33 -9 l-27 1 30 8 c17 4 31 8 33 9 2 0 0 -3 -3
-9z m2052 -7 c4 -10 11 -21 17 -25 6 -4 -2 -8 -19 -8 -23 0 -27 3 -15 10 13 8
12 10 -2 10 -18 0 -23 11 -11 23 11 12 23 8 30 -10z m-1497 -3 c0 -5 6 -10 13
-10 7 0 26 -13 42 -30 l29 -30 -27 0 c-16 0 -27 5 -27 14 0 17 -30 26 -100 27
-40 0 -50 3 -35 9 11 5 16 9 12 9 -5 1 -6 4 -4 9 8 11 97 14 97 2z m2160 -5
c23 -8 68 -15 99 -16 31 0 94 -9 141 -19 l85 -18 -118 0 c-97 -1 -125 2 -165
19 -34 15 -68 21 -127 21 -131 0 -167 12 -55 18 52 4 96 7 96 8 1 1 21 -5 44
-13z m726 -10 c17 -17 10 -37 -9 -29 -8 3 -24 1 -38 -4 -17 -7 -32 -5 -52 5
-15 8 -37 11 -47 8 -11 -3 -30 0 -42 7 -21 12 -15 14 57 19 44 3 88 6 98 7 10
1 25 -5 33 -13z m-4209 -9 c-10 -8 -26 -13 -35 -11 -9 2 -19 4 -22 4 -15 3 29
21 50 21 23 -1 24 -2 7 -14z m1673 0 c91 -4 271 -28 265 -35 -3 -3 -42 -4 -87
-2 -59 2 -83 -1 -89 -11 -7 -10 -9 -10 -9 3 0 19 -45 29 -137 29 -51 0 -61 3
-57 15 4 9 14 13 28 10 11 -3 50 -7 86 -9z m1525 4 c18 -7 18 -8 -7 -15 -16
-4 -36 -4 -45 -1 -15 6 -15 8 -3 16 18 11 28 11 55 0z m1303 -9 c7 -1 11 -5 7
-10 -3 -6 -41 -8 -85 -6 -61 2 -80 0 -80 -10 0 -7 -15 -15 -35 -17 -29 -3 -32
-2 -22 11 31 38 64 47 134 40 37 -5 74 -8 81 -8z m-2270 -2 l27 -1 -25 -8
c-41 -13 -60 -11 -60 6 0 11 5 14 16 10 9 -3 28 -6 42 -7z m290 -3 c83 -1 153
-4 157 -7 11 -11 -133 -20 -222 -14 -158 10 -197 16 -182 26 8 5 32 6 55 3 22
-3 109 -7 192 -8z m597 5 c6 -1 2 -6 -8 -12 -29 -17 -217 -9 -217 10 0 5 197
7 225 2z m3329 3 c9 -3 16 -10 16 -15 0 -14 -24 -11 -46 6 -16 12 -17 14 -2
15 9 0 23 -3 32 -6z m-6124 -14 c0 -6 -11 -8 -25 -4 -19 5 -25 2 -25 -10 0 -9
-7 -16 -15 -16 -8 0 -15 9 -15 20 0 17 7 20 40 20 22 0 40 -5 40 -10z m745 0
c-3 -5 -18 -10 -33 -10 -21 0 -24 2 -12 10 20 13 53 13 45 0z m451 -6 c-26
-14 -30 -14 -44 0 -15 15 -13 16 28 16 l45 -1 -29 -15z m3344 6 c0 -6 -28 -10
-65 -10 -37 0 -65 4 -65 10 0 6 28 10 65 10 37 0 65 -4 65 -10z m-5556 -6 c12
-5 7 -11 -21 -25 -45 -23 -53 -24 -53 -4 0 25 41 42 74 29z m7190 -39 c6 -16
-3 -19 -28 -9 -22 8 -20 24 3 24 10 0 21 -7 25 -15z m-5038 -20 c4 -8 14 -15
24 -15 11 0 22 -4 25 -10 9 -15 -18 -12 -54 6 -17 8 -29 20 -26 25 9 14 25 11
31 -6z m2783 -16 c-8 -5 -21 -9 -29 -9 -10 1 -7 7 10 21 17 14 26 17 28 9 3
-7 -2 -16 -9 -21z m-59 -23 c0 -2 -7 -6 -15 -10 -8 -3 -15 -1 -15 4 0 6 7 10
15 10 8 0 15 -2 15 -4z m-2635 -16 c3 -5 1 -10 -4 -10 -6 0 -11 5 -11 10 0 6
2 10 4 10 3 0 8 -4 11 -10z m-2735 -49 c0 -5 -3 -16 -6 -25 -5 -14 -8 -14 -21
-1 -8 8 -11 19 -8 25 8 13 35 13 35 1z m80 -16 c-7 -9 -15 -13 -17 -11 -7 7 7
26 19 26 6 0 6 -6 -2 -15z m7998 -50 c2 -8 -1 -15 -7 -15 -6 0 -11 -7 -11 -16
0 -8 -4 -13 -10 -9 -5 3 -7 11 -4 18 2 7 -9 26 -26 42 -16 16 -30 33 -30 37 0
15 85 -40 88 -57z m-8028 26 c0 -5 -7 -11 -15 -15 -8 -3 -15 -12 -15 -21 0
-20 -19 -19 -27 0 -3 9 2 22 13 30 22 16 44 19 44 6z m3444 -112 c6 -5 1 -11
-10 -14 -10 -4 -32 -12 -49 -19 -50 -22 -72 -1 -38 36 13 14 25 17 52 12 20
-4 40 -10 45 -15z m461 11 c-3 -5 -10 -10 -16 -10 -5 0 -9 5 -9 10 0 6 7 10
16 10 8 0 12 -4 9 -10z m-31 -19 c9 -13 -9 -29 -34 -31 -42 -4 -66 0 -54 8 6
4 13 14 16 23 4 11 15 15 37 11 17 -2 33 -7 35 -11z m996 -61 c0 -6 29 -10 68
-10 80 0 112 -8 112 -26 0 -8 18 -16 51 -20 33 -4 53 -12 56 -23 7 -17 38 -51
48 -51 11 0 75 -67 75 -77 0 -6 7 -13 15 -17 8 -3 20 -17 27 -31 6 -14 17 -25
25 -25 7 0 13 -9 13 -20 0 -11 5 -20 11 -20 6 0 9 -16 7 -37 -3 -36 -5 -38
-33 -35 -23 2 -27 1 -15 -7 8 -6 28 -11 43 -11 20 0 30 -6 34 -20 7 -26 33
-26 33 1 0 31 34 20 38 -13 2 -19 -3 -30 -17 -38 -16 -8 -21 -21 -21 -50 0
-21 -4 -42 -10 -45 -15 -9 -12 -25 5 -25 8 0 15 -4 15 -8 0 -5 18 -29 41 -53
38 -41 40 -47 35 -88 -3 -24 -6 -66 -6 -93 0 -41 -4 -51 -19 -55 -22 -6 -31
-41 -31 -119 0 -29 -4 -56 -10 -59 -5 -3 -10 -22 -10 -41 0 -24 -5 -34 -15
-34 -8 0 -23 -8 -33 -17 -42 -41 -73 -63 -87 -63 -8 0 -18 -8 -24 -17 -7 -14
-13 -15 -22 -6 -6 6 -25 9 -45 6 -20 -3 -40 -1 -49 7 -8 7 -22 10 -30 6 -41
-15 11 -99 56 -90 13 3 33 9 44 14 11 5 30 11 43 13 23 5 23 4 16 -49 -5 -44
-4 -54 9 -54 33 0 40 -107 8 -127 -25 -16 -31 -8 -31 44 0 37 -3 44 -17 41
-10 -2 -23 -14 -30 -27 -14 -28 -46 -51 -37 -26 3 8 11 15 18 15 6 0 5 4 -3 9
-20 13 -63 3 -84 -20 -10 -10 -25 -19 -35 -20 -63 -4 -59 4 -51 -96 2 -31 -27
-74 -46 -67 -18 7 -21 99 -5 109 21 13 -9 31 -47 30 -50 -1 -63 -10 -63 -45 0
-25 4 -29 33 -32 28 -3 32 -7 35 -35 3 -25 9 -33 30 -37 15 -3 36 -5 47 -3 15
1 21 -5 23 -23 4 -35 -33 -73 -63 -66 -17 4 -24 1 -28 -14 -7 -28 -33 -25 -63
7 -25 26 -25 27 -31 5 -11 -43 -83 -40 -83 3 0 31 -27 23 -32 -8 -2 -18 -9
-21 -33 -19 -16 2 -31 6 -33 10 -7 20 -20 30 -45 36 -24 6 -30 3 -34 -14 -5
-18 -12 -21 -47 -18 -35 3 -41 7 -45 28 -6 44 -36 52 -53 14 -9 -19 -17 -24
-32 -19 -12 3 -34 7 -51 8 -19 1 -29 7 -27 16 1 7 -5 19 -14 25 -8 7 -15 19
-14 27 5 32 -1 39 -36 39 -29 0 -35 3 -30 16 10 25 -12 54 -41 54 -20 0 -24 4
-20 20 3 11 0 34 -6 51 -10 24 -9 32 3 39 8 5 18 6 22 4 4 -3 8 2 8 10 0 9 9
21 20 28 11 7 20 19 20 27 0 7 8 20 18 27 13 10 15 16 6 31 -10 16 -24 18
-105 15 -52 -2 -98 -7 -103 -12 -6 -6 -24 -10 -42 -10 -19 0 -34 -6 -38 -15
-4 -11 -22 -15 -70 -15 l-65 0 0 43 c1 67 -12 117 -32 128 -24 12 -27 77 -4
85 9 4 27 26 41 50 28 47 33 51 53 32 11 -11 12 -9 7 9 -5 16 -1 25 14 33 12
6 24 9 27 6 3 -2 8 -31 12 -63 8 -71 13 -78 59 -102 20 -11 55 -36 77 -55 24
-22 50 -36 67 -36 15 0 30 -5 33 -10 4 -6 11 -8 16 -5 5 4 9 1 9 -5 0 -13 83
-50 111 -50 16 0 18 5 13 26 -6 25 -6 26 40 23 26 -2 51 2 58 9 7 7 20 12 30
12 9 0 21 7 26 16 5 8 24 18 43 20 19 3 41 12 49 21 13 14 13 14 -7 9 -12 -4
-24 -2 -27 3 -4 6 -54 8 -130 4 -105 -5 -127 -3 -147 11 -13 9 -39 16 -58 16
-29 0 -44 9 -88 55 -30 31 -58 53 -62 50 -5 -2 -14 2 -21 10 -7 8 -16 13 -20
10 -4 -3 -14 2 -21 11 -10 12 -10 20 -1 35 7 10 12 34 12 52 0 18 4 37 9 42 5
6 12 39 14 75 3 36 9 83 14 105 7 34 13 40 41 46 36 7 142 74 142 89 0 6 15
10 34 10 29 0 33 3 29 20 -3 11 -9 20 -14 20 -9 0 -50 -21 -59 -30 -3 -3 -11
-6 -18 -8 -16 -3 -74 -42 -84 -57 -5 -6 -8 -3 -8 6 0 9 -11 28 -25 43 -14 15
-25 35 -25 45 0 10 -6 24 -14 31 -8 6 -16 21 -18 33 -2 12 -12 23 -23 25 -11
2 -27 10 -36 18 -14 13 -113 15 -122 3 -2 -2 -11 -16 -20 -31 -10 -16 -24 -28
-32 -28 -19 0 -29 38 -14 56 10 12 10 17 0 23 -9 6 -5 16 15 40 21 25 32 31
50 27 12 -3 25 -2 28 3 3 4 20 11 37 15 l32 6 -21 23 c-12 13 -22 31 -22 40 0
16 33 57 46 57 3 0 26 14 51 30 24 17 53 30 63 30 10 0 22 5 25 10 3 6 15 10
26 10 11 0 22 7 25 15 4 10 20 15 45 15 21 0 39 5 39 11 0 7 32 9 95 7 88 -3
95 -2 104 19 8 18 21 22 78 28 37 3 77 7 88 9 53 8 245 5 245 -4z m-1640 -11
c0 -15 -33 -69 -42 -69 -4 0 -8 -7 -8 -15 0 -19 -67 -20 -92 -1 -16 12 -16 14
5 34 46 44 137 77 137 51z m140 -159 c0 -5 -9 -10 -20 -10 -11 0 -20 5 -20 10
0 6 9 10 20 10 11 0 20 -4 20 -10z m-77 -62 c-14 -13 -28 -18 -39 -14 -16 6
-15 10 11 32 36 31 61 16 28 -18z m-3485 -127 c-13 -21 -29 -23 -35 -5 -3 8
37 33 45 28 2 -1 -3 -12 -10 -23z m-88 -35 c0 -14 -32 -76 -40 -76 -6 0 -6 8
0 23 6 12 13 30 16 40 5 14 24 25 24 13z m8533 -93 c3 -54 4 -99 2 -101 -9 -9
-25 79 -25 136 0 98 16 73 23 -35z m-2704 -32 c20 -13 6 -28 -28 -29 -32 -1
-47 11 -36 28 8 12 45 13 64 1z m-1962 -68 c-3 -10 -5 -4 -5 12 0 17 2 24 5
18 2 -7 2 -21 0 -30z m-97 20 c-1 -23 -30 -87 -47 -104 -14 -15 -30 -20 -57
-17 l-38 3 36 47 c41 53 106 97 106 71z m417 -43 c-3 -23 -13 -53 -24 -67 -10
-14 -25 -37 -34 -51 -8 -15 -29 -30 -47 -34 -17 -5 -34 -13 -37 -18 -12 -19
-35 -10 -35 13 0 13 -9 32 -20 42 -11 10 -20 26 -20 36 0 26 100 99 136 100
16 0 38 4 49 9 34 15 38 11 32 -30z m3527 15 c3 -8 1 -15 -4 -15 -6 0 -10 7
-10 15 0 8 2 15 4 15 2 0 6 -7 10 -15z m-3860 -21 c10 -25 7 -149 -3 -159 -6
-6 -14 -32 -18 -60 -6 -35 -14 -51 -26 -53 -14 -3 -17 4 -17 39 0 41 19 212
26 237 5 17 31 15 38 -4z m-2802 -59 c4 -16 9 -44 10 -62 1 -31 14 -35 44 -12
6 5 14 6 17 2 10 -9 9 -93 -1 -93 -4 0 -13 -19 -19 -43 -7 -23 -21 -53 -32
-66 -25 -29 -28 -76 -5 -85 26 -10 32 -7 39 22 l7 27 20 -25 c26 -32 20 -99
-12 -142 -19 -26 -20 -34 -11 -56 9 -19 15 -22 23 -14 7 7 16 12 20 12 13 0 9
-27 -6 -43 -18 -17 -18 -86 -1 -110 10 -14 11 -27 4 -45 -7 -18 -6 -27 2 -33
7 -4 14 -27 16 -51 2 -23 8 -63 14 -87 9 -38 7 -46 -10 -65 -10 -11 -25 -40
-32 -64 -15 -52 -31 -67 -56 -54 -13 7 -24 6 -38 -4 -18 -13 -17 -14 12 -14
18 0 35 -4 38 -10 3 -5 14 -10 24 -10 19 0 48 -27 39 -36 -7 -6 -128 12 -178
27 -19 6 -66 13 -105 17 -66 7 -70 8 -70 32 0 21 4 25 30 23 17 -1 54 -6 83
-13 58 -12 106 -8 64 5 -14 5 -21 13 -18 21 7 18 -4 45 -15 38 -5 -3 -9 -14
-9 -25 0 -14 -7 -19 -30 -19 -27 0 -30 3 -30 32 0 32 0 32 -16 10 -23 -33 -68
-27 -90 13 -13 25 -16 53 -13 148 3 95 2 117 -10 117 -11 0 -13 -26 -9 -146 4
-141 4 -146 -17 -154 -11 -4 -27 -16 -35 -25 -13 -16 -11 -17 25 -15 61 4 75
1 75 -14 0 -15 -17 -17 -202 -31 -62 -5 -78 -3 -78 8 0 9 14 14 41 15 44 2
124 21 117 27 -2 3 -32 5 -66 7 l-62 2 0 37 c0 28 -5 38 -20 42 -13 3 -22 17
-26 36 -4 17 -10 31 -14 31 -12 0 -30 49 -30 81 0 25 5 30 30 35 50 10 53 23
47 155 -4 97 -2 122 10 134 8 8 19 15 24 15 5 0 9 9 9 20 0 11 12 25 27 33 25
14 25 15 7 24 -10 5 -26 9 -34 8 -28 -2 -38 14 -30 51 15 65 53 89 43 27 -6
-37 -6 -38 14 -20 11 9 25 17 31 17 18 0 42 -56 49 -110 5 -42 8 -48 26 -44
11 2 21 5 22 6 2 2 5 38 7 80 3 70 2 77 -17 82 -37 10 -47 40 -34 107 9 44 18
65 35 76 13 8 24 21 24 28 0 8 11 27 25 43 14 17 25 38 25 48 0 9 3 14 7 10 4
-4 8 -39 9 -77 0 -38 4 -72 8 -76 4 -4 17 -1 28 6 20 12 24 11 43 -13 21 -26
38 -27 29 -1 -5 13 25 72 57 113 10 13 23 39 29 58 14 43 40 42 52 -1z m7023
15 c3 -5 -1 -10 -10 -10 -9 0 -13 5 -10 10 3 6 8 10 10 10 2 0 7 -4 10 -10z
m-4768 -27 c-9 -9 -20 -13 -24 -9 -4 4 1 14 11 22 25 18 35 8 13 -13z m4217
-3 c4 -20 11 -30 24 -30 11 0 25 -14 35 -36 13 -27 22 -34 36 -29 11 3 22 1
26 -5 3 -6 -3 -10 -14 -10 -22 0 -28 -14 -10 -25 6 -4 31 -9 56 -11 44 -4 45
-4 38 18 -11 34 -18 108 -10 108 3 0 18 -14 32 -30 28 -34 72 -60 89 -53 6 2
25 -12 43 -32 23 -26 31 -45 31 -73 0 -44 -23 -82 -50 -82 -22 0 -37 -19 -23
-29 6 -3 10 -13 11 -21 2 -57 6 -68 23 -59 10 5 19 14 22 21 5 13 8 6 22 -37
3 -9 17 -15 39 -15 36 0 46 -15 46 -71 0 -18 6 -28 20 -32 24 -6 26 -36 5 -76
-19 -37 -10 -131 13 -131 10 0 13 -7 9 -21 -3 -12 0 -22 9 -26 8 -3 12 -9 9
-13 -3 -4 2 -13 10 -20 19 -15 12 -62 -17 -132 -20 -48 -31 -57 -43 -38 -10
16 -25 1 -25 -25 0 -25 -17 -35 -60 -35 -40 0 -60 9 -60 28 0 12 -3 13 -12 4
-19 -19 -45 -14 -51 10 -4 12 -4 74 -2 137 l4 116 -13 -122 c-8 -67 -17 -126
-21 -132 -8 -14 -60 -14 -86 -1 -15 8 -19 7 -19 -5 0 -18 -40 -21 -58 -3 -16
16 -29 1 -16 -20 15 -23 91 -34 99 -14 4 10 14 12 38 8 17 -4 64 -9 102 -12
39 -3 74 -10 79 -15 6 -5 28 -9 50 -9 23 -1 52 -7 66 -16 23 -13 16 -14 -70
-7 -52 5 -132 7 -177 6 -54 -1 -83 2 -83 9 0 7 -4 7 -12 1 -7 -5 -51 -15 -98
-22 -47 -7 -107 -17 -133 -22 -58 -11 -67 -11 -67 -1 0 10 90 46 97 39 3 -4
15 0 27 8 11 8 32 15 46 16 l25 1 -25 7 c-14 4 -35 3 -48 -3 -18 -7 -26 -6
-32 4 -7 11 -11 12 -24 0 -20 -16 -19 -18 -49 60 -34 89 -41 164 -21 231 24
82 33 101 44 94 6 -3 10 3 10 14 0 12 4 21 10 21 6 0 9 38 7 98 -2 99 -13 130
-42 118 -10 -4 -15 1 -15 14 0 11 5 20 10 20 6 0 10 8 10 18 0 10 6 27 14 38
14 18 15 17 30 -18 16 -38 36 -51 36 -23 0 8 5 15 11 15 15 0 41 68 34 91 -4
11 -15 19 -29 19 -34 0 -48 22 -40 64 6 32 14 41 36 37 10 -1 33 78 25 86 -4
3 -18 1 -32 -5 -29 -13 -29 -11 -14 37 7 20 13 42 15 49 6 22 21 12 28 -18z
m878 -237 c6 -70 12 -236 12 -368 1 -222 -1 -243 -19 -274 -11 -19 -24 -32
-30 -30 -17 7 -12 753 5 784 7 14 15 23 17 21 3 -2 9 -62 15 -133z m-4152 76
c15 -27 6 -49 -20 -49 -16 0 -20 6 -20 35 0 40 22 48 40 14z m-3814 -77 c-11
-10 -14 3 -7 38 l6 35 3 -33 c2 -19 1 -36 -2 -40z m-262 -307 c2 -291 -3 -387
-18 -352 -5 9 -16 17 -25 17 -14 0 -16 15 -15 125 1 157 -3 187 -25 183 -24
-5 -45 -158 -21 -158 11 0 14 -63 3 -73 -9 -10 -35 44 -28 61 3 8 1 20 -4 26
-6 7 -7 80 -3 191 7 163 9 176 20 140 6 -22 12 -57 12 -77 0 -20 3 -43 6 -52
9 -24 33 -19 38 7 8 39 26 261 21 265 -2 2 2 10 8 17 24 26 29 -30 31 -320z
m426 314 c0 -5 -4 -9 -10 -9 -5 0 -10 7 -10 16 0 8 5 12 10 9 6 -3 10 -10 10
-16z m640 -65 c0 -17 -19 -56 -31 -64 -5 -4 -10 -23 -11 -43 -3 -40 -13 -48
-21 -17 -5 18 13 83 34 122 12 22 29 24 29 2z m50 -14 c0 -16 -4 -30 -8 -30
-5 0 -7 14 -4 30 2 17 6 30 8 30 2 0 4 -13 4 -30z m6790 8 c0 -18 -2 -20 -9
-8 -6 8 -7 18 -5 22 9 14 14 9 14 -14z m-7691 -25 c-1 -33 -2 -35 -8 -13 -4
14 -6 31 -3 38 8 22 12 13 11 -25z m7588 30 c-4 -3 0 -14 8 -23 8 -9 17 -30
21 -46 5 -28 5 -29 -39 -31 -38 -1 -46 2 -56 23 -6 14 -11 29 -11 34 0 18 40
50 62 50 12 0 18 -3 15 -7z m-7503 -25 c11 -42 7 -55 -9 -34 -16 22 -20 56 -6
56 5 0 11 -10 15 -22z m3541 -13 c46 -45 45 -59 -2 -50 -79 15 -118 9 -152
-20 -23 -22 -31 -36 -29 -58 3 -36 57 -97 86 -97 11 0 27 -3 36 -6 30 -11 5
-24 -47 -24 -42 0 -57 5 -74 24 -13 13 -23 29 -23 35 0 6 -8 11 -17 11 -16 0
-18 8 -15 61 3 40 9 62 18 66 8 3 14 10 14 17 0 10 37 40 51 41 3 0 13 8 23
18 11 10 33 17 57 17 32 0 46 -7 74 -35z m3320 -56 c21 -39 18 -49 -6 -19 -34
43 -42 60 -24 54 9 -4 22 -19 30 -35z m793 9 c-2 -6 -10 -14 -16 -16 -7 -2
-10 2 -6 12 7 18 28 22 22 4z m-7638 -53 c-7 -9 -15 -13 -17 -11 -7 7 7 26 19
26 6 0 6 -6 -2 -15z m765 -27 c-4 -13 -11 -27 -16 -32 -15 -17 -23 3 -11 29
15 32 36 34 27 3z m7235 -73 c0 -76 -8 -102 -24 -76 -9 14 6 161 15 161 5 0 9
-38 9 -85z m-8070 55 c0 -11 -4 -20 -10 -20 -5 0 -10 2 -10 4 0 2 -3 11 -6 20
-4 11 -1 16 10 16 9 0 16 -8 16 -20z m76 -27 c12 -41 13 -83 3 -83 -5 0 -9 9
-9 20 0 11 -7 36 -14 55 -12 29 -13 35 -2 35 8 0 17 -12 22 -27z m7573 -40 c1
-7 -3 -13 -9 -13 -5 0 -10 17 -9 38 1 33 2 34 9 12 4 -14 8 -31 9 -37z m48 35
c-3 -8 -6 -5 -6 6 -1 11 2 17 5 13 3 -3 4 -12 1 -19z m-4137 -28 c0 -5 -7 -10
-16 -10 -8 0 -12 5 -9 10 3 6 10 10 16 10 5 0 9 -4 9 -10z m-3597 -34 c7 -18
-3 -86 -12 -86 -4 0 -7 23 -7 50 0 49 8 65 19 36z m885 -46 c15 0 15 -6 1 -33
-28 -53 -59 -50 -59 6 0 52 8 62 30 42 9 -8 22 -15 28 -15z m289 -12 c-3 -8
-6 -5 -6 6 -1 11 2 17 5 13 3 -3 4 -12 1 -19z m-161 -3 c-10 -8 -23 -12 -28
-9 -14 9 2 24 25 24 21 -1 21 -1 3 -15z m7094 -22 c0 -21 -3 -24 -9 -14 -5 8
-7 20 -4 28 8 21 13 15 13 -14z m-1485 6 c4 -6 13 -8 21 -5 8 3 14 -1 14 -9 0
-8 -5 -15 -11 -15 -17 0 -49 20 -49 30 0 13 17 13 25 -1z m1121 -19 c1 -16 -3
-27 -7 -24 -11 6 -12 54 -1 54 4 0 7 -13 8 -30z m-6617 -15 c-19 -19 -36 -30
-37 -25 -5 14 39 60 57 60 8 0 -1 -15 -20 -35z m-1149 -14 c0 -5 -5 -22 -11
-38 -9 -25 -12 -26 -20 -11 -7 12 -6 25 1 38 11 21 30 27 30 11z m6720 -6 c7
-8 8 -15 2 -15 -5 0 -15 7 -22 15 -7 8 -8 15 -2 15 5 0 15 -7 22 -15z m970 -6
c0 -11 -4 -17 -10 -14 -5 3 -10 13 -10 21 0 8 5 14 10 14 6 0 10 -9 10 -21z
m413 -26 c-3 -18 -10 -33 -15 -33 -6 0 -8 10 -4 23 3 12 6 31 6 42 0 11 3 15
9 10 5 -6 7 -25 4 -42z m-7041 -13 c-28 -28 -42 -49 -44 -72 -2 -21 -8 -33
-18 -33 -18 0 -16 42 4 64 7 9 12 21 9 27 -2 6 10 17 26 24 17 7 36 19 42 26
7 8 14 12 17 9 3 -3 -13 -23 -36 -45z m6796 -37 c-11 -14 -13 -13 -19 8 -4 13
-7 35 -8 49 -1 24 0 23 19 -8 17 -28 19 -37 8 -49z m-1083 47 c3 -5 2 -10 -4
-10 -5 0 -13 5 -16 10 -3 6 -2 10 4 10 5 0 13 -4 16 -10z m-5815 -50 c0 -21
-15 -27 -25 -10 -7 12 2 30 16 30 5 0 9 -9 9 -20z m5918 1 c3 -8 -1 -12 -9 -9
-7 2 -15 10 -17 17 -3 8 1 12 9 9 7 -2 15 -10 17 -17z m-7265 -15 c3 -8 3 -17
0 -20 -7 -7 -33 13 -33 25 0 15 27 10 33 -5z m357 -12 c0 -8 -4 -14 -10 -14
-5 0 -10 9 -10 21 0 11 5 17 10 14 6 -3 10 -13 10 -21z m3356 11 c4 -9 19 -15
39 -15 19 0 37 -4 40 -10 3 -5 15 -10 25 -10 10 0 21 -8 24 -17 3 -10 24 -27
46 -37 22 -11 40 -23 40 -28 0 -4 4 -8 8 -8 5 0 37 -27 71 -60 47 -45 62 -66
58 -80 -3 -11 0 -23 6 -28 7 -4 27 -31 45 -60 29 -48 32 -61 32 -133 0 -43 -4
-79 -9 -79 -11 0 -21 36 -21 82 0 36 -14 60 -22 36 -7 -19 -28 1 -28 27 0 12
-15 42 -32 66 -46 60 -178 189 -195 189 -7 0 -13 5 -13 10 0 6 -14 10 -30 10
-18 0 -33 6 -36 15 -7 18 -47 21 -42 3 3 -7 13 -17 24 -23 11 -5 34 -20 51
-32 17 -13 43 -23 57 -23 19 0 29 -7 36 -24 5 -13 13 -25 17 -27 14 -6 69
-100 82 -141 11 -34 10 -41 -19 -91 -17 -30 -38 -57 -48 -60 -9 -3 -42 -14
-72 -25 -60 -22 -147 -34 -155 -22 -2 4 -24 4 -47 -1 -65 -12 -75 -11 -104 16
-15 14 -33 25 -40 25 -7 0 -33 14 -57 30 -25 17 -48 30 -51 30 -3 0 -28 21
-56 47 -41 38 -50 53 -50 80 0 23 5 33 15 33 8 0 15 4 15 9 0 5 -7 11 -15 15
-8 3 -15 18 -15 33 0 34 80 111 151 145 51 24 65 48 27 48 -13 0 -52 -7 -87
-15 -36 -9 -68 -12 -73 -7 -11 11 26 45 54 49 12 2 26 10 32 18 7 9 37 18 76
21 38 4 68 13 73 20 12 21 166 19 173 -1z m4901 -1 c6 -18 -27 -45 -47 -39
-10 3 -22 0 -26 -7 -9 -13 -28 -162 -34 -258 -4 -57 -19 35 -19 110 1 41 0 80
-2 85 -5 19 15 50 55 88 40 36 65 44 73 21z m-7297 -4 c13 -9 13 -12 -2 -24
-10 -7 -18 -18 -18 -23 0 -5 -11 -20 -25 -33 l-25 -23 0 38 c0 57 34 89 70 65z
m5890 0 c0 -5 -4 -10 -10 -10 -5 0 -10 5 -10 10 0 6 5 10 10 10 6 0 10 -4 10
-10z m-7120 -68 c12 -29 13 -155 1 -148 -5 3 -14 43 -21 88 -7 46 -19 90 -26
99 -8 9 -11 19 -7 23 8 8 39 -28 53 -62z m8164 53 c3 -8 1 -15 -3 -15 -5 0
-11 7 -15 15 -3 8 -1 15 3 15 5 0 11 -7 15 -15z m-925 -17 c13 -34 3 -40 -24
-16 -30 26 -32 38 -5 38 12 0 24 -9 29 -22z m964 -50 c-43 -131 -97 -222 -79
-135 4 17 9 58 11 89 4 65 11 82 30 74 8 -3 19 2 25 9 21 26 28 6 13 -37z
m-3933 16 c0 -14 -4 -23 -10 -19 -5 3 -10 15 -10 26 0 10 5 19 10 19 6 0 10
-12 10 -26z m-4026 -21 c3 -21 6 -54 6 -72 0 -62 -23 -18 -26 49 -3 66 10 81
20 23z m3966 16 c0 -5 -4 -9 -10 -9 -5 0 -10 7 -10 16 0 8 5 12 10 9 6 -3 10
-10 10 -16z m960 6 c0 -8 -4 -15 -10 -15 -5 0 -10 7 -10 15 0 8 5 15 10 15 6
0 10 -7 10 -15z m-4848 -12 c10 -9 18 -20 18 -25 0 -14 -28 -9 -44 8 -32 32
-8 48 26 17z m6958 -40 c-1 -27 -1 -27 -15 -9 -14 19 -12 36 6 36 5 0 9 -12 9
-27z m770 23 c0 -3 -4 -8 -10 -11 -5 -3 -10 -1 -10 4 0 6 5 11 10 11 6 0 10
-2 10 -4z m-4843 -23 c2 -6 -11 -19 -29 -29 -18 -9 -50 -32 -70 -50 -37 -33
-76 -50 -100 -42 -6 2 19 28 58 56 38 29 78 59 89 67 22 17 46 16 52 -2z
m-3300 -25 c-3 -8 -6 -5 -6 6 -1 11 2 17 5 13 3 -3 4 -12 1 -19z m203 -105 c0
-56 -5 -114 -10 -129 -10 -25 -12 -26 -27 -11 -12 12 -17 44 -21 141 l-5 125
32 -12 31 -11 0 -103z m1137 100 c-3 -16 -8 -46 -12 -68 -12 -75 -16 -86 -26
-79 -12 7 -2 112 13 130 5 7 8 16 7 20 -3 17 1 24 12 24 7 0 9 -11 6 -27z
m5930 5 c-3 -8 -6 -5 -6 6 -1 11 2 17 5 13 3 -3 4 -12 1 -19z m903 7 c0 -8
-19 -33 -42 -55 -33 -32 -44 -37 -46 -25 -6 25 45 95 68 95 11 0 20 -7 20 -15z
m266 -128 c-3 -78 -10 -156 -14 -172 -8 -29 -9 -30 -20 -8 -8 14 -12 74 -12
162 0 119 2 141 15 141 8 0 15 5 15 10 0 6 5 10 12 10 8 0 9 -38 4 -143z
m-4063 93 c6 -24 -6 -26 -27 -4 -17 17 -20 27 -9 37 9 9 30 -10 36 -33z
m-3863 -2 c20 -22 29 -75 10 -63 -5 3 -10 15 -10 26 0 17 -4 20 -29 14 -33 -7
-49 8 -31 30 17 21 36 19 60 -7z m3974 -70 c5 -9 7 -20 3 -24 -12 -12 -72 11
-75 30 -3 14 2 17 29 14 17 -2 37 -11 43 -20z m2810 6 c3 -8 2 -12 -4 -9 -6 3
-10 10 -10 16 0 14 7 11 14 -7z m-4218 -41 c-2 -15 -10 -27 -20 -29 -17 -2
-20 13 -10 40 10 27 33 19 30 -11z m4231 -5 c-3 -8 -6 -5 -6 6 -1 11 2 17 5
13 3 -3 4 -12 1 -19z m-1782 -10 c14 -6 25 -17 25 -24 0 -12 37 -30 53 -26 4
1 7 -2 7 -8 0 -5 7 -10 15 -10 9 0 25 -16 36 -35 12 -20 30 -40 41 -46 13 -7
18 -17 15 -31 -3 -12 2 -32 13 -47 27 -39 33 -67 16 -83 -8 -8 -16 -26 -19
-39 -3 -17 -5 -12 -6 14 -1 26 -6 39 -18 44 -32 10 -83 73 -83 100 0 17 -14
38 -42 65 -24 21 -52 48 -63 58 -12 11 -26 20 -32 20 -19 0 -21 24 -5 43 18
20 15 20 47 5z m-937 -41 c2 -15 -1 -27 -6 -27 -17 0 -34 29 -28 46 9 23 31
11 34 -19z m-3696 -45 c-3 -7 -14 -12 -26 -10 -15 2 -22 11 -24 35 -3 26 1 32
20 35 18 2 24 -3 29 -22 3 -14 3 -31 1 -38z m2138 60 c0 -13 -23 -32 -39 -32
-11 0 -10 4 4 20 19 21 35 26 35 12z m-2231 -31 c14 -25 2 -28 -74 -20 -45 4
-50 6 -21 7 29 2 37 5 32 17 -9 24 51 20 63 -4z m4116 -1 c3 -6 -1 -7 -9 -4
-18 7 -21 14 -7 14 6 0 13 -4 16 -10z m2777 -6 c16 -10 7 -22 -21 -26 -38 -6
-71 7 -71 28 0 14 7 15 42 10 22 -4 45 -9 50 -12z m-6673 0 c17 -4 31 -13 31
-20 0 -17 -125 -20 -135 -4 -17 27 32 38 104 24z m4116 -23 c-3 -6 -11 -11
-17 -11 -6 0 -6 6 2 15 14 17 26 13 15 -4z m2645 15 c0 -3 -4 -8 -10 -11 -5
-3 -10 -1 -10 4 0 6 5 11 10 11 6 0 10 -2 10 -4z m110 0 c0 -11 -19 -15 -25
-6 -3 5 1 10 9 10 9 0 16 -2 16 -4z m-303 -22 c-3 -3 -12 -4 -19 -1 -8 3 -5 6
6 6 11 1 17 -2 13 -5z m-2892 -28 c37 -16 47 -36 18 -36 -25 1 -82 50 -58 50
3 0 21 -7 40 -14z m-1570 -6 c3 -5 17 -10 30 -10 13 0 27 -4 30 -10 3 -5 26
-10 51 -10 31 0 44 -4 44 -14 0 -13 69 -56 91 -56 5 0 32 -22 60 -50 27 -27
54 -50 60 -50 5 0 28 -13 51 -30 22 -16 49 -30 60 -30 10 0 18 -4 18 -9 0 -5
11 -12 25 -15 14 -4 25 -13 25 -21 0 -8 9 -15 19 -15 11 0 22 -3 24 -7 3 -5
-36 -7 -86 -6 -93 2 -142 14 -222 55 -22 11 -47 24 -55 28 -76 36 -140 74
-140 81 0 5 -6 9 -14 9 -14 0 -30 34 -27 58 1 6 -11 17 -26 23 -15 6 -31 16
-35 22 -6 9 -10 9 -15 1 -5 -6 -37 -14 -73 -18 -158 -16 -198 -24 -238 -44
-36 -19 -42 -26 -38 -47 3 -14 0 -25 -5 -25 -5 0 -9 12 -9 27 0 14 -8 35 -17
46 -17 18 -17 20 6 38 13 10 29 19 37 19 8 0 14 7 14 15 0 12 14 15 65 15 50
0 65 3 65 15 0 11 18 15 78 18 42 1 91 4 109 5 17 1 35 -2 38 -8z m1763 -26
c6 -11 11 -13 16 -5 9 14 122 15 131 1 4 -6 15 -4 30 6 23 15 25 15 31 -1 11
-27 -11 -40 -42 -26 -22 10 -30 9 -44 -4 -16 -14 -34 -15 -124 -9 -103 7 -106
7 -106 30 0 22 4 24 50 24 35 0 52 -5 58 -16z m632 6 c0 -5 -4 -10 -10 -10 -5
0 -10 5 -10 10 0 6 5 10 10 10 6 0 10 -4 10 -10z m260 -10 c0 -12 -29 -20 -35
-10 -9 15 4 30 20 23 8 -3 15 -9 15 -13z m-5220 -5 c7 -8 19 -15 27 -15 16 0
133 -90 133 -102 0 -14 -21 -8 -26 7 -4 8 -15 15 -25 15 -10 0 -19 7 -19 15 0
17 -45 21 -55 5 -3 -5 -12 -7 -20 -4 -15 6 -55 68 -55 85 0 14 26 11 40 -6z
m750 -22 l0 -38 -15 29 c-19 36 -19 46 0 46 11 0 15 -11 15 -37z m7287 -20
c-3 -10 -5 -2 -5 17 0 19 2 27 5 18 2 -10 2 -26 0 -35z m-3025 20 c12 -6 -14
-53 -29 -53 -8 0 -13 12 -13 35 0 34 7 37 42 18z m-4456 -38 c-8 -21 -54 -37
-73 -26 -13 7 -9 12 21 26 20 10 39 22 43 28 9 15 17 -9 9 -28z m1244 -21 c0
6 6 1 14 -10 8 -10 18 -16 22 -11 4 4 2 7 -6 7 -10 0 -10 3 0 15 7 8 16 15 21
15 11 0 12 -39 2 -41 -32 -6 -52 -5 -48 1 3 4 -2 10 -10 14 -8 3 -15 11 -15
18 0 9 3 8 10 -2 5 -8 10 -11 10 -6z m5240 -25 c0 -5 -4 -9 -10 -9 -5 0 -10 7
-10 16 0 8 5 12 10 9 6 -3 10 -10 10 -16z m-6603 -16 c-15 -16 -17 -16 -17 -1
0 9 6 18 13 21 20 7 22 -2 4 -20z m4593 15 c0 -5 7 -8 15 -8 8 0 15 -9 15 -21
0 -15 5 -19 19 -14 16 5 20 -1 25 -32 8 -50 -6 -129 -23 -125 -15 3 -62 -25
-74 -45 -18 -30 -46 -14 -73 45 -37 79 -43 149 -14 185 18 23 28 27 66 25 24
-2 44 -6 44 -10z m-5593 -118 c1 -46 -3 -78 -8 -74 -5 3 -9 41 -9 85 0 44 4
78 8 75 5 -3 9 -41 9 -86z m4517 84 c13 -5 14 -10 6 -20 -14 -15 -40 -8 -40
12 0 15 10 17 34 8z m-356 -41 c-3 -32 -7 -38 -35 -45 -29 -8 -83 -58 -83 -79
0 -5 -5 -9 -11 -9 -5 0 -7 5 -3 12 5 7 3 8 -5 3 -7 -4 -10 -17 -7 -30 4 -16
-1 -25 -20 -36 -14 -7 -30 -21 -35 -31 -12 -22 -39 -24 -39 -3 0 22 -33 35
-89 35 -34 0 -55 6 -67 18 -17 16 -17 17 5 20 13 2 28 -1 34 -7 14 -14 87 -14
87 -1 0 6 10 10 23 10 13 0 32 7 42 15 11 8 35 25 54 38 19 12 39 31 45 42 6
11 17 24 24 28 6 4 12 14 12 20 0 20 22 37 48 37 21 0 23 -4 20 -37z m4442 28
c0 -6 -4 -13 -10 -16 -5 -3 -10 1 -10 9 0 9 5 16 10 16 6 0 10 -4 10 -9z
m-4850 -12 c0 -10 -69 -21 -90 -14 -38 12 -19 24 35 22 30 -1 55 -5 55 -8z
m4420 -9 c0 -5 -5 -10 -11 -10 -5 0 -7 5 -4 10 3 6 8 10 11 10 2 0 4 -4 4 -10z
m-2920 -9 c0 -6 -5 -13 -10 -16 -15 -9 -43 3 -35 15 8 13 45 13 45 1z m3337
-23 c-3 -8 -6 -5 -6 6 -1 11 2 17 5 13 3 -3 4 -12 1 -19z m-7640 6 c-3 -3 -12
-4 -19 -1 -8 3 -5 6 6 6 11 1 17 -2 13 -5z m-399 -23 c-6 -11 -26 -21 -42 -24
-17 -3 -46 -10 -65 -16 l-34 -11 28 30 c20 21 40 30 69 33 22 2 44 4 49 5 4 1
2 -7 -5 -17z m346 3 c9 -3 16 -12 16 -20 0 -16 -65 -20 -75 -4 -15 24 21 39
59 24z m6881 -14 c-3 -5 -17 -10 -30 -10 -13 0 -27 5 -30 10 -4 6 8 10 30 10
22 0 34 -4 30 -10z m-4955 -45 c-7 -8 -17 -15 -22 -15 -6 0 -5 7 2 15 7 8 17
15 22 15 6 0 5 -7 -2 -15z m3056 -22 c-11 -11 -17 4 -9 23 7 18 8 18 11 1 2
-10 1 -21 -2 -24z m-2690 -19 c63 -38 104 -72 104 -86 0 -5 -11 -20 -25 -33
-28 -29 -95 -35 -115 -10 -7 8 -24 15 -39 15 -15 0 -32 5 -38 11 -7 7 -42 13
-78 15 -72 4 -85 8 -85 29 0 14 71 68 112 85 50 19 102 11 164 -26z m1436 11
c47 -2 72 -8 84 -19 9 -10 23 -15 30 -12 7 3 19 -1 26 -7 7 -7 21 -16 31 -20
9 -3 17 -13 17 -22 0 -19 24 -19 40 0 7 8 37 29 67 46 105 60 225 40 267 -46
23 -46 25 -144 3 -160 -48 -35 -67 -172 -26 -182 14 -4 19 -14 19 -43 0 -45
-26 -75 -41 -47 -15 26 -24 21 -52 -31 -14 -27 -50 -70 -79 -95 -74 -66 -75
-67 -96 -67 -10 0 -33 -5 -51 -11 -28 -10 -36 -8 -73 17 -35 25 -53 30 -120
33 -48 2 -78 -1 -78 -7 0 -6 -24 -12 -52 -15 -29 -3 -67 -8 -84 -12 -22 -5
-35 -2 -47 10 -9 9 -22 15 -29 14 -44 -9 -85 44 -58 76 13 16 6 35 -15 35 -15
0 -25 22 -25 56 0 15 -6 24 -15 24 -8 0 -15 2 -15 4 0 2 -3 11 -6 20 -4 12 0
16 15 16 14 0 21 6 21 20 0 21 -29 29 -31 8 0 -10 -2 -10 -5 -1 -8 18 31 51
63 55 l28 3 -4 112 c-3 111 -3 112 21 124 14 6 33 24 42 40 10 17 30 36 44 42
15 6 31 18 35 25 12 18 49 32 67 25 8 -3 45 -7 82 -8z m-3735 -57 c-3 -7 -5
-2 -5 12 0 14 2 19 5 13 2 -7 2 -19 0 -25z m1373 11 c0 -5 -4 -9 -10 -9 -5 0
-10 7 -10 16 0 8 5 12 10 9 6 -3 10 -10 10 -16z m3490 -14 c0 -22 -6 -38 -15
-41 -8 -4 -15 -12 -15 -20 0 -7 -9 -18 -20 -24 -11 -6 -20 -20 -20 -31 0 -14
-5 -19 -14 -16 -7 3 -30 -8 -50 -25 l-36 -29 0 24 c0 14 7 27 15 31 8 3 20 17
27 31 6 14 17 25 24 25 17 0 64 69 64 92 0 11 8 18 20 18 16 0 20 -7 20 -35z
m-3008 -7 c-6 -6 -15 -8 -19 -4 -4 4 -1 11 7 16 19 12 27 3 12 -12z m3452 -23
c13 -14 26 -25 30 -25 4 0 20 -13 36 -30 16 -16 34 -30 40 -30 5 0 10 -4 10
-10 0 -5 6 -10 14 -10 8 0 16 -6 19 -14 3 -8 19 -17 36 -21 17 -4 31 -13 31
-21 0 -8 7 -14 15 -14 9 0 18 -7 21 -15 4 -8 11 -15 18 -15 15 -1 56 -36 56
-49 0 -6 4 -11 10 -11 5 0 34 -24 65 -54 l55 -55 0 -154 c0 -85 -5 -179 -11
-208 -10 -53 -29 -457 -28 -612 1 -117 -8 -157 -34 -157 -12 0 -35 -7 -51 -15
-41 -21 -50 -7 -30 46 19 51 33 213 20 236 -5 10 -4 23 3 34 15 25 15 119 -1
119 -8 0 -9 47 -3 188 4 103 7 259 5 346 l-2 159 -48 46 c-26 25 -73 69 -106
96 -32 28 -74 65 -93 83 -19 18 -46 39 -60 47 -14 7 -39 27 -56 44 -16 17 -38
31 -48 31 -10 0 -16 4 -12 9 3 5 -11 5 -32 -1 -57 -15 -139 -5 -166 20 -13 12
-31 22 -40 22 -9 0 -19 5 -22 10 -4 7 53 10 165 10 170 0 171 0 194 -25z
m1093 19 c-3 -3 -12 -4 -19 -1 -8 3 -5 6 6 6 11 1 17 -2 13 -5z m463 -20 c0
-14 -4 -23 -10 -19 -5 3 -10 15 -10 26 0 10 5 19 10 19 6 0 10 -12 10 -26z
m-6877 2 c3 -8 3 -17 0 -20 -9 -9 -34 15 -27 25 8 13 21 11 27 -5z m447 -1 c0
-8 -4 -15 -10 -15 -5 0 -10 7 -10 15 0 8 5 15 10 15 6 0 10 -7 10 -15z m1418
-16 c56 -32 72 -53 53 -72 -23 -23 -9 -27 92 -27 57 0 107 -4 112 -9 6 -5 28
-14 50 -21 61 -19 145 -85 145 -115 0 -19 -4 -23 -22 -20 -12 3 -25 10 -29 16
-4 6 -11 9 -17 5 -5 -3 -25 4 -43 17 -19 12 -50 27 -69 34 -46 15 -273 16
-319 2 -125 -40 -166 -70 -177 -132 -6 -38 -7 -39 -20 -22 -20 27 -19 115 1
115 9 0 18 7 21 15 4 8 12 15 20 15 8 0 14 4 14 9 0 5 21 19 48 31 26 13 55
26 64 31 10 5 24 9 32 9 8 0 26 5 40 11 l24 11 -42 23 c-54 29 -91 41 -82 27
3 -6 2 -13 -4 -17 -5 -3 -10 -1 -10 4 0 6 -9 11 -20 11 -11 0 -20 3 -20 8 0
10 37 42 49 42 5 0 11 7 15 15 8 23 35 18 94 -16z m5792 7 c0 -7 9 -16 20 -19
25 -6 27 -37 3 -32 -10 2 -23 4 -30 4 -14 1 -27 37 -18 51 9 15 25 12 25 -4z
m-5544 -37 c3 -6 0 -15 -7 -20 -19 -12 -139 -11 -139 1 0 9 25 15 95 23 17 2
33 5 37 6 4 0 10 -4 14 -10z m5704 -29 c0 -5 -4 -10 -10 -10 -5 0 -10 5 -10
10 0 6 5 10 10 10 6 0 10 -4 10 -10z m-3196 -56 c9 -3 16 -13 16 -21 0 -21
-44 -12 -48 10 -4 18 6 21 32 11z m-4684 -110 c0 -16 -16 -19 -25 -4 -8 13 4
32 16 25 5 -4 9 -13 9 -21z m1407 -39 c0 -8 -4 -12 -9 -9 -4 3 -8 9 -8 15 0 5
4 9 8 9 5 0 9 -7 9 -15z m663 6 c0 -10 -116 -22 -136 -14 -8 3 -11 9 -8 14 7
12 144 12 144 0z m5638 -21 c-1 -29 -8 -37 -21 -24 -5 5 12 54 19 54 1 0 2
-13 2 -30z m-3268 16 c0 -3 -4 -8 -10 -11 -5 -3 -10 -1 -10 4 0 6 5 11 10 11
6 0 10 -2 10 -4z m-2377 -63 c-2 -7 5 -13 15 -13 38 0 55 -48 31 -91 -6 -11
-11 -35 -11 -52 0 -18 -3 -36 -7 -42 -5 -10 -6 -13 -9 -44 -2 -10 -5 -11 -16
-2 -11 9 -20 7 -40 -12 -15 -14 -45 -28 -69 -31 -23 -4 -49 -11 -57 -17 -11
-8 -7 -9 18 -5 39 7 84 -2 76 -15 -7 -13 -131 -11 -139 2 -5 6 -26 8 -60 4
-53 -7 -54 -6 -61 20 -4 15 -4 60 -1 101 3 41 2 74 -2 74 -4 0 -26 -20 -49
-44 -39 -41 -42 -48 -42 -100 0 -43 3 -56 15 -56 18 0 18 -1 5 -34 -6 -16 -17
-26 -30 -26 -11 0 -20 -6 -20 -13 0 -28 -26 -67 -44 -67 -16 0 -18 5 -12 42 4
24 15 47 26 55 17 12 20 26 20 100 0 76 2 85 20 90 11 3 20 10 20 17 1 27 84
96 115 96 9 0 28 9 42 20 14 11 32 20 39 20 8 0 14 5 14 10 0 6 9 10 20 10 11
0 20 5 20 10 0 7 32 10 88 8 63 -2 86 -6 85 -15z m2367 -37 c0 -30 -4 -58 -10
-61 -5 -3 -10 -21 -10 -39 0 -39 -25 -68 -32 -38 -4 16 15 141 27 180 11 31
25 7 25 -42z m-1320 14 c0 -5 -5 -10 -11 -10 -5 0 -7 5 -4 10 3 6 8 10 11 10
2 0 4 -4 4 -10z m1707 -45 c24 -21 25 -25 10 -31 -27 -10 -47 3 -47 31 0 31 4
31 37 0z m-3594 -49 c3 -8 -1 -20 -9 -26 -8 -7 -14 -9 -14 -4 0 5 -5 1 -10 -8
-6 -10 -34 -22 -68 -28 -31 -7 -61 -16 -67 -20 -15 -11 -73 -20 -90 -14 -8 4
-15 14 -15 24 0 19 19 30 51 30 10 0 19 5 19 10 0 6 13 10 30 10 16 0 49 6 72
14 38 13 68 21 89 25 4 0 9 -5 12 -13z m-2033 -38 c0 -26 -4 -38 -8 -30 -8 12
-4 72 4 72 2 0 4 -19 4 -42z m5713 -8 c26 -31 21 -40 -25 -40 -60 0 -117 -6
-125 -14 -13 -13 -50 -5 -71 15 -28 25 -19 42 19 37 17 -3 34 1 40 9 8 8 35
13 78 13 54 0 70 -4 84 -20z m2784 -57 c-3 -10 -5 -2 -5 17 0 19 2 27 5 18 2
-10 2 -26 0 -35z m0 -55 c-3 -7 -5 -2 -5 12 0 14 2 19 5 13 2 -7 2 -19 0 -25z
m-6943 16 c9 -3 16 -14 16 -24 0 -26 -115 -68 -141 -52 -10 7 -30 12 -44 12
-31 0 -31 9 -2 43 19 23 30 26 89 26 36 1 73 -2 82 -5z m1516 -54 c-6 -23 -13
-40 -16 -37 -3 2 1 26 7 53 7 27 14 43 16 37 2 -6 -1 -30 -7 -53z m941 29 c37
-40 37 -59 0 -59 -20 0 -40 10 -60 31 -34 33 -38 45 -18 52 29 12 51 5 78 -24z
m-1123 9 c-4 -18 -19 -27 -35 -21 -20 8 -16 21 10 26 12 2 23 5 25 6 1 0 1 -5
0 -11z m3012 -13 c0 -10 10 -15 30 -15 23 0 30 -4 30 -20 0 -14 7 -20 23 -20
12 0 34 -8 47 -17 14 -9 26 -17 27 -17 1 -1 4 -13 8 -29 9 -36 -10 -36 -48 1
-28 27 -30 27 -161 27 -83 0 -138 -4 -147 -11 -8 -6 -26 -14 -41 -18 -14 -3
-33 -8 -41 -12 -10 -4 -16 4 -19 25 -5 33 16 61 44 61 9 0 21 7 28 15 7 8 21
15 31 15 11 0 19 4 19 9 0 12 35 17 113 20 45 1 57 -2 57 -14z m2704 -1 c4 -9
3 -33 -1 -53 -6 -34 -7 -35 -14 -11 -16 56 -3 111 15 64z m-3867 -78 c17 -19
34 -44 38 -55 3 -12 13 -21 21 -21 14 0 18 -18 9 -42 -7 -18 -65 -12 -82 9 -6
8 -16 12 -22 9 -6 -4 -23 0 -38 7 -15 8 -45 17 -65 21 -21 4 -38 11 -38 15 0
16 42 61 51 55 6 -3 13 3 16 15 4 16 13 21 42 21 28 0 43 -7 68 -34z m-999 -8
c7 -7 12 -22 12 -34 0 -12 6 -27 14 -33 20 -17 29 -107 14 -141 -14 -32 -58
-48 -58 -21 0 9 -13 31 -29 49 -26 28 -36 32 -78 32 -62 0 -93 -9 -93 -26 0
-7 -9 -18 -20 -24 -11 -6 -20 -17 -20 -25 0 -11 -12 -15 -41 -15 -31 0 -49 -8
-79 -32 -22 -18 -40 -36 -40 -40 0 -4 16 -4 35 -1 29 5 40 1 56 -16 14 -14 32
-21 59 -21 34 0 38 -3 35 -21 -7 -35 -34 -69 -55 -69 -11 0 -20 -4 -20 -10 0
-5 5 -10 10 -10 6 0 10 -13 10 -30 0 -39 10 -38 46 6 43 54 48 66 45 98 l-3
29 63 -7 c35 -3 68 -11 73 -16 6 -6 22 -10 36 -10 14 0 35 -7 46 -15 10 -8 36
-15 56 -15 20 0 43 -6 50 -14 8 -7 36 -16 63 -20 28 -5 55 -11 60 -16 6 -4 30
-10 53 -14 24 -4 50 -13 58 -20 7 -8 42 -17 76 -21 35 -3 77 -13 95 -21 17 -8
53 -17 80 -20 26 -4 53 -12 58 -19 6 -6 32 -15 59 -18 28 -4 52 -11 55 -16 4
-4 31 -11 62 -14 31 -4 69 -14 85 -22 16 -8 42 -15 57 -15 16 0 49 -6 75 -14
26 -8 79 -24 117 -35 39 -12 85 -21 102 -21 18 0 35 -4 38 -10 3 -5 18 -10 33
-10 15 0 36 -7 46 -15 11 -8 39 -15 62 -15 24 0 45 -4 48 -9 3 -5 27 -12 53
-16 27 -4 50 -11 54 -16 3 -5 30 -13 60 -19 29 -5 63 -14 74 -19 38 -16 92
-31 113 -31 11 0 24 -4 27 -10 3 -5 24 -10 45 -10 21 0 42 -4 45 -10 3 -5 19
-10 35 -10 16 0 32 -4 35 -10 3 -5 21 -10 38 -10 18 0 41 -7 51 -15 11 -8 30
-15 43 -15 13 0 31 -4 41 -9 28 -14 84 -29 135 -37 26 -3 50 -10 53 -15 3 -5
20 -9 39 -9 19 0 36 -4 40 -10 3 -5 32 -12 65 -16 33 -4 65 -13 71 -20 6 -8
17 -14 24 -14 7 0 44 -16 81 -35 38 -19 72 -35 76 -35 4 0 19 -11 34 -25 15
-14 33 -25 40 -25 8 0 14 -4 14 -8 0 -5 21 -20 46 -33 26 -13 48 -29 51 -36 3
-6 22 -21 43 -32 54 -28 147 -100 217 -168 19 -18 36 -33 38 -33 2 0 20 -15
38 -32 19 -18 64 -60 100 -93 36 -33 66 -66 66 -73 1 -7 8 -15 16 -18 28 -11
15 -30 -30 -42 -25 -7 -93 -12 -151 -12 -75 0 -109 -4 -119 -13 -17 -18 -233
-27 -610 -27 -299 0 -355 4 -355 26 0 11 -20 14 -84 14 -62 0 -89 4 -100 15
-8 8 -31 15 -50 15 -20 0 -36 4 -36 9 0 4 -24 11 -52 14 -29 4 -54 11 -56 16
-2 6 -30 13 -64 17 -36 4 -62 12 -65 20 -3 8 -17 14 -32 14 -14 0 -46 9 -70
20 -24 11 -51 20 -61 20 -10 0 -39 9 -65 20 -26 11 -55 20 -66 20 -10 0 -19 7
-19 15 0 9 -9 15 -22 15 -36 0 -112 26 -116 38 -2 7 -16 12 -30 12 -15 0 -60
11 -100 25 -41 14 -82 25 -93 25 -10 0 -19 4 -19 9 0 5 -12 11 -27 14 -30 5
-87 24 -115 38 -10 5 -22 9 -28 9 -6 0 -28 11 -50 25 -22 14 -51 25 -64 25
-14 0 -28 5 -31 10 -3 6 -13 10 -21 10 -9 0 -22 7 -30 15 -9 8 -29 15 -45 15
-16 0 -29 4 -29 9 0 4 -21 14 -47 21 -27 7 -55 19 -64 27 -8 7 -25 13 -37 13
-12 0 -31 5 -42 10 -11 6 -29 15 -40 20 -11 6 -28 10 -38 10 -10 0 -22 4 -28
8 -5 5 -35 17 -66 26 -31 10 -62 24 -69 32 -6 8 -26 14 -43 14 -46 0 -76 11
-76 26 0 9 -12 14 -33 14 -18 0 -37 4 -43 9 -5 5 -27 14 -49 21 -22 7 -49 19
-60 26 -11 8 -32 14 -46 14 -15 0 -29 5 -31 11 -2 5 -22 13 -46 16 -26 3 -42
11 -42 19 0 9 -12 14 -34 14 -19 0 -37 4 -40 9 -3 4 -19 11 -36 15 -17 3 -38
13 -46 21 -9 8 -26 15 -40 15 -36 0 -30 39 9 53 9 3 17 13 17 21 0 7 9 16 19
19 11 2 21 15 23 28 2 16 11 25 24 27 16 2 24 12 28 35 4 21 16 38 36 49 35
20 38 33 10 48 -27 14 -25 27 5 34 26 7 33 30 13 42 -6 4 -22 -6 -37 -25 -14
-17 -32 -31 -39 -31 -7 0 -30 -13 -50 -28 -56 -43 -217 -77 -247 -52 -13 10
-17 7 -30 -23 -8 -20 -29 -43 -50 -55 -19 -12 -35 -26 -35 -32 0 -6 -11 -26
-25 -44 -43 -57 -30 -114 43 -183 46 -45 94 -57 106 -28 3 8 11 15 17 15 7 0
20 6 28 14 9 8 40 17 70 20 29 4 58 9 62 12 5 3 9 -1 9 -9 0 -8 -7 -17 -15
-21 -8 -3 -15 -13 -15 -22 0 -23 -29 -43 -63 -44 -15 0 -30 -7 -33 -15 -4 -8
-17 -15 -31 -15 -14 0 -36 -9 -50 -20 -40 -31 -113 -21 -113 15 0 11 -13 15
-50 15 -27 0 -50 5 -50 10 0 6 -9 19 -20 30 -16 16 -20 33 -20 84 0 48 -4 65
-15 70 -22 8 -18 24 8 28 19 3 22 9 22 50 1 28 7 54 17 65 9 10 18 27 20 38 2
12 13 21 26 23 13 2 26 10 29 19 3 8 16 19 29 24 21 7 24 15 24 62 0 29 4 57
9 63 6 5 14 32 18 59 7 41 12 51 31 53 16 2 22 10 22 28 0 27 -13 31 -32 9
-33 -39 -42 -46 -55 -41 -7 3 -16 -1 -19 -9 -12 -30 -34 -16 -34 21 0 19 -4
43 -10 53 -8 16 -5 20 22 25 17 3 37 14 44 23 13 19 161 46 170 31 8 -13 -6
-28 -27 -28 -10 0 -19 -5 -19 -11 0 -7 -8 -18 -17 -25 -10 -7 -14 -16 -10 -21
5 -4 14 0 21 10 7 9 18 17 25 17 6 0 11 5 11 10 0 6 8 10 18 10 20 1 84 56
101 88 6 12 21 22 31 22 11 0 20 5 20 10 0 6 11 15 25 20 24 9 33 16 93 70 31
29 36 30 128 30 113 0 139 10 130 50 -3 18 -1 30 7 34 23 9 73 6 85 -6z
m-3738 -85 c0 -38 -3 -54 -10 -47 -9 9 -3 104 6 104 2 0 4 -26 4 -57z m2775
32 c80 -1 152 -20 186 -51 8 -8 26 -14 40 -15 13 0 18 -3 12 -6 -9 -3 -13 -26
-13 -64 0 -45 -3 -59 -15 -59 -8 0 -12 6 -9 13 3 8 -2 19 -10 26 -12 10 -19 8
-35 -8 -12 -12 -26 -21 -31 -21 -6 0 -5 -8 2 -20 7 -10 9 -22 6 -26 -11 -11
-28 6 -28 28 0 17 -4 15 -23 -13 -20 -30 -21 -35 -8 -45 13 -10 13 -14 -2 -28
-9 -10 -17 -22 -17 -27 0 -5 -10 -9 -22 -9 -12 0 -33 -10 -46 -22 -14 -13 -22
-17 -18 -10 13 23 -15 12 -47 -18 -34 -32 -52 -37 -60 -17 -3 6 -6 3 -6 -7 -1
-11 -11 -30 -23 -43 -12 -13 -16 -23 -10 -23 7 0 12 -9 12 -20 0 -15 -7 -20
-25 -20 -18 0 -25 5 -25 19 0 20 -18 31 -50 31 -11 0 -23 8 -29 17 -8 15 -13
15 -36 5 -37 -17 -45 -15 -45 11 0 20 -46 67 -65 67 -10 0 -5 -139 5 -145 15
-9 12 -25 -4 -25 -8 0 -20 14 -28 30 -7 17 -19 30 -25 30 -9 0 -13 21 -13 75
0 67 2 75 19 75 22 0 31 19 31 66 0 26 9 43 35 69 19 19 41 35 49 35 8 0 22 7
30 16 25 25 128 84 147 84 9 0 22 7 29 15 7 8 21 15 32 15 10 0 21 7 24 15 4
8 11 12 18 8 6 -4 47 -8 91 -8z m2235 7 c0 -4 -9 -13 -20 -20 -17 -10 -20 -10
-20 2 0 8 8 17 18 19 9 3 18 5 20 6 1 0 2 -2 2 -7z m-630 -20 c18 -15 20 -21
11 -45 -8 -21 -17 -27 -41 -27 -23 0 -30 4 -30 19 0 13 -11 24 -35 32 -54 20
-45 39 19 39 36 0 61 -6 76 -18z m700 -32 c0 -11 -7 -23 -15 -27 -21 -8 -28 1
-20 26 8 27 35 27 35 1z m812 -12 c-1 -9 13 -32 33 -50 34 -32 36 -36 39 -113
5 -100 -11 -133 -66 -142 -13 -2 -18 4 -18 22 0 15 -7 28 -17 32 -25 9 -33 23
-33 60 0 18 -7 51 -16 74 -15 35 -15 46 -3 82 15 49 21 54 57 53 20 -1 26 -6
24 -18z m-3675 -3 c14 -4 5 -45 -10 -45 -14 0 -49 -41 -72 -85 -11 -20 -25
-40 -32 -42 -7 -3 -13 -11 -13 -17 0 -13 -76 -7 -112 9 -24 10 -26 105 -3 105
8 0 15 7 15 15 0 8 6 15 13 15 6 1 23 14 36 30 24 29 27 30 95 24 39 -3 76 -7
83 -9z m3873 -67 c0 -86 -8 -84 -18 6 -7 52 -6 66 5 66 10 0 13 -19 13 -72z
m-1190 47 c0 -9 -7 -18 -16 -22 -18 -7 -39 11 -30 26 11 17 46 13 46 -4z
m3619 -46 c-16 -32 -32 -9 -19 27 10 25 13 27 21 12 7 -12 6 -25 -2 -39z
m-5431 23 c27 -27 52 -86 42 -96 -6 -6 -24 -6 -47 0 -36 9 -38 11 -43 57 -4
26 -4 50 -1 52 9 10 32 4 49 -13z m-748 -7 c0 -9 -6 -18 -14 -21 -8 -3 -12
-13 -9 -25 4 -14 0 -19 -15 -19 -22 0 -48 -50 -38 -75 9 -23 -3 -43 -30 -49
-19 -5 -24 -13 -24 -37 0 -35 -21 -46 -56 -30 -34 15 -39 35 -20 75 9 19 16
41 16 51 0 23 86 105 113 106 16 1 18 2 5 6 -10 2 -18 11 -18 19 0 10 13 14
45 14 34 0 45 -4 45 -15z m-1422 -32 c-5 -7 -14 -10 -19 -7 -16 10 -9 23 10
21 15 -1 17 -4 9 -14z m342 -22 c0 -6 -5 -13 -10 -16 -15 -9 -43 3 -35 15 8
13 45 13 45 1z m808 -140 c4 -24 3 -24 -19 -9 -33 21 -37 40 -8 36 17 -2 25
-11 27 -27z m3158 -3 c5 -8 2 -9 -10 -5 -10 4 -22 7 -27 7 -5 0 -9 7 -9 15 0
12 4 14 19 5 11 -5 23 -15 27 -22z m-5248 3 c3 -8 -1 -12 -9 -9 -7 2 -15 10
-17 17 -3 8 1 12 9 9 7 -2 15 -10 17 -17z m4735 -47 c17 -9 36 -23 40 -30 4
-8 13 -14 20 -14 8 0 12 -28 13 -95 0 -52 0 -95 0 -95 -60 13 -91 30 -94 51
-2 13 -10 31 -17 39 -30 36 -63 108 -58 131 6 31 49 37 96 13z m-4693 -84 c0
-18 -2 -19 -20 -8 -11 7 -20 16 -20 20 0 5 9 8 20 8 13 0 20 -7 20 -20z m55
-37 c3 -13 3 -23 -2 -23 -13 0 -34 40 -27 51 8 13 20 1 29 -28z m2348 2 c-3
-9 -8 -14 -10 -11 -3 3 -2 9 2 15 9 16 15 13 8 -4z m5242 -5 c-3 -5 -11 -10
-16 -10 -6 0 -7 5 -4 10 3 6 11 10 16 10 6 0 7 -4 4 -10z m-40 -29 c-3 -6 -11
-11 -17 -11 -6 0 -6 6 2 15 14 17 26 13 15 -4z m-5185 -7 c0 -8 -4 -12 -10 -9
-5 3 -10 10 -10 16 0 5 5 9 10 9 6 0 10 -7 10 -16z m-11 -65 c37 -37 50 -59
36 -59 -3 0 -13 8 -23 18 -10 9 -32 28 -50 41 -18 13 -32 28 -32 32 0 21 31 6
69 -32z m201 37 c0 -3 -4 -8 -10 -11 -5 -3 -10 -1 -10 4 0 6 5 11 10 11 6 0
10 -2 10 -4z m508 -234 c2 -20 -4 -46 -12 -57 -13 -18 -15 -18 -40 -2 -29 20
-33 40 -11 59 9 7 21 18 28 25 22 22 33 14 35 -25z m67 -52 c-3 -5 -10 -10
-16 -10 -5 0 -9 5 -9 10 0 6 7 10 16 10 8 0 12 -4 9 -10z m4222 4 c-3 -3 -12
-4 -19 -1 -8 3 -5 6 6 6 11 1 17 -2 13 -5z m-6415 -31 c15 -3 33 -11 39 -19 6
-8 17 -14 24 -14 14 0 31 -57 21 -67 -3 -4 -17 -1 -31 5 -14 7 -36 12 -47 12
-17 0 -19 3 -10 12 29 29 1 39 -30 11 -17 -15 -18 -15 -18 15 0 24 -6 33 -30
44 -43 19 -37 27 13 16 23 -5 54 -12 69 -15z m6368 17 c0 -5 -14 -17 -31 -26
-29 -15 -33 -15 -48 0 -14 15 -14 18 -1 26 20 13 80 13 80 0z m-100 -17 c0
-12 -33 -43 -47 -43 -20 0 -16 17 9 34 24 17 38 20 38 9z m-1153 -9 c-3 -3
-12 -4 -19 -1 -8 3 -5 6 6 6 11 1 17 -2 13 -5z m176 -22 c64 -34 90 -61 90
-92 0 -39 -1 -40 -43 -31 -22 4 -36 14 -40 27 -11 43 -47 73 -99 85 -72 15
-73 29 -2 29 39 0 73 -6 94 -18z m2347 -27 c0 -8 -4 -15 -9 -15 -5 0 -32 -18
-60 -40 -61 -49 -81 -51 -81 -10 0 23 -5 31 -25 36 -17 4 -32 1 -44 -10 -10
-9 -30 -16 -45 -16 -20 0 -27 -4 -23 -14 5 -12 -1 -14 -26 -11 -43 6 -87 -12
-87 -36 0 -14 -9 -21 -30 -26 -17 -3 -33 -9 -35 -13 -3 -5 -15 -6 -27 -2 -16
4 -20 2 -16 -10 5 -11 0 -14 -19 -10 -23 4 -25 2 -20 -17 4 -18 1 -21 -28 -21
-72 0 -52 52 35 93 32 15 72 27 88 27 17 0 37 9 48 21 14 16 26 19 52 14 25
-5 44 0 79 19 49 28 83 32 114 15 25 -13 119 8 126 28 7 18 33 16 33 -2z
m-331 -161 c-64 -43 -81 -58 -58 -49 28 11 30 -11 3 -24 -29 -13 -52 -5 -35
12 13 13 15 31 3 23 -4 -2 -14 -1 -22 4 -13 8 -13 11 0 24 20 20 87 43 129 45
l33 1 -53 -36z m125 -65 c-2 -5 0 -19 7 -31 8 -16 9 -23 1 -26 -7 -2 -9 -15
-5 -33 3 -19 1 -29 -6 -29 -7 0 -19 -16 -27 -35 -16 -39 -22 -40 -132 -29
l-60 7 -5 36 c-2 20 -2 41 0 46 3 9 55 36 155 79 20 9 40 21 43 26 3 5 12 7
20 4 8 -4 12 -10 9 -15z m-431 -14 c-3 -9 -8 -14 -10 -11 -3 3 -2 9 2 15 9 16
15 13 8 -4z m-6286 -1 c-3 -3 -12 -4 -19 -1 -8 3 -5 6 6 6 11 1 17 -2 13 -5z
m241 -10 c19 -13 21 -19 11 -30 -10 -13 -15 -12 -34 6 -12 11 -24 17 -28 14
-10 -10 -39 5 -32 16 9 15 58 12 83 -6z m52 -4 c0 -5 -2 -10 -4 -10 -3 0 -8 5
-11 10 -3 6 -1 10 4 10 6 0 11 -4 11 -10z m5225 1 c3 -5 1 -13 -5 -16 -15 -9
-43 3 -35 15 8 13 32 13 40 1z m953 -5 c-7 -8 -15 -12 -17 -11 -5 6 10 25 20
25 5 0 4 -6 -3 -14z m-7190 -2 c12 -4 22 -12 22 -19 0 -17 -47 -7 -54 11 -6
15 -2 17 32 8z m122 -4 c0 -5 -7 -10 -15 -10 -8 0 -15 5 -15 10 0 6 7 10 15
10 8 0 15 -4 15 -10z m50 -21 c0 -5 -4 -9 -10 -9 -5 0 -10 7 -10 16 0 8 5 12
10 9 6 -3 10 -10 10 -16z m810 -44 c0 -8 -2 -15 -4 -15 -2 0 -6 7 -10 15 -3 8
-1 15 4 15 6 0 10 -7 10 -15z m-1673 -16 c38 -17 44 -24 39 -42 -3 -12 -6 -25
-6 -29 0 -5 -26 -8 -58 -8 -47 0 -63 4 -78 21 -16 17 -16 22 -4 29 8 6 18 10
23 10 4 0 7 5 7 10 0 6 -11 10 -25 10 -14 0 -25 5 -25 10 0 17 79 11 127 -11z
m1753 1 c0 -5 -2 -10 -4 -10 -3 0 -8 5 -11 10 -3 6 -1 10 4 10 6 0 11 -4 11
-10z m6350 -136 c15 -39 14 -41 -57 -52 -38 -5 -85 -15 -105 -20 -20 -5 -39
-7 -42 -5 -8 8 47 73 62 73 6 0 12 4 12 9 0 9 32 16 93 19 21 2 30 -4 37 -24z
m-5188 -7 c48 -33 75 -63 91 -105 30 -77 15 -132 -33 -119 -11 3 -20 1 -20 -4
0 -5 5 -9 10 -9 6 0 2 -8 -9 -19 -10 -10 -21 -25 -23 -32 -4 -12 -11 -11 -39
3 -52 25 -134 32 -163 13 -17 -11 -25 -13 -28 -4 -2 6 -17 12 -32 12 -19 0
-30 5 -33 18 -4 15 -15 19 -49 19 l-44 0 0 54 c0 75 15 112 48 119 15 3 41 19
57 35 40 39 46 40 152 37 64 -1 99 -7 115 -18z m4908 3 c12 -7 12 -13 4 -27
-17 -27 -59 -28 -85 -2 -22 22 -22 23 -3 30 27 11 66 10 84 -1z m-5359 -79
c-6 -11 -11 -27 -11 -36 0 -16 -36 -74 -54 -87 -16 -11 -36 4 -36 27 0 13 5
25 12 27 8 3 11 21 9 51 -2 37 1 47 13 47 8 0 28 11 43 24 l28 25 3 -29 c2
-16 -2 -38 -7 -49z m-2557 -27 c31 -30 -8 -46 -57 -23 -19 9 -31 7 -55 -5 -27
-14 -31 -14 -43 0 -22 27 -8 32 118 42 12 1 29 -5 37 -14z m66 -4 c0 -5 -5
-10 -11 -10 -5 0 -7 5 -4 10 3 6 8 10 11 10 2 0 4 -4 4 -10z m30 -30 c8 -5 11
-10 6 -10 -5 0 -4 -6 3 -13 8 -11 5 -13 -19 -9 -28 4 -39 20 -23 35 9 9 15 9
33 -3z m1885 -28 c-3 -3 -11 0 -18 7 -9 10 -8 11 6 5 10 -3 15 -9 12 -12z
m-1000 -43 c81 -40 98 -55 90 -76 -2 -7 1 -13 7 -13 6 0 9 -3 6 -6 -6 -5 -15
-2 -67 25 -17 9 -26 10 -34 2 -15 -15 -22 -14 -54 12 -15 13 -44 29 -63 37
-49 19 -57 28 -32 37 33 13 102 4 147 -18z m6975 16 c0 -8 -4 -15 -10 -15 -5
0 -10 7 -10 15 0 8 5 15 10 15 6 0 10 -7 10 -15z m-885 -19 c11 -11 8 -15 -21
-24 -40 -12 -58 3 -29 25 24 16 33 16 50 -1z m-2044 -21 c17 -3 45 -11 62 -19
18 -8 46 -20 64 -27 l31 -13 -36 -13 c-26 -10 -60 -12 -111 -7 -64 5 -77 10
-102 35 -53 54 -33 64 92 44z m-241 -35 c23 -23 26 -50 6 -50 -18 0 -58 49
-50 61 8 14 22 11 44 -11z m3568 -16 c-4 -34 -58 -64 -113 -63 -36 0 -38 1
-16 10 14 5 31 7 38 4 14 -5 73 48 73 65 0 6 5 10 11 10 6 0 9 -12 7 -26z
m-8520 -85 c-15 -10 -55 33 -50 53 3 13 9 10 32 -15 17 -20 24 -34 18 -38z
m2682 52 c0 -20 63 -108 92 -129 21 -15 23 -36 6 -49 -20 -15 -57 -1 -71 27
-8 16 -21 25 -37 25 -24 0 -25 3 -28 73 -3 67 -1 72 18 72 13 0 20 -7 20 -19z
m1018 -12 c-8 -6 -9 -9 -2 -9 7 0 15 -7 18 -16 8 -21 -20 -54 -46 -54 -12 0
-18 -7 -18 -21 0 -39 -26 -3 -28 38 l-2 38 19 -23 c13 -15 22 -19 26 -11 4 6
2 16 -4 22 -16 16 -14 24 10 30 12 3 18 10 14 16 -4 7 0 8 10 4 13 -5 14 -7 3
-14z m769 15 c-3 -3 -12 -4 -19 -1 -8 3 -5 6 6 6 11 1 17 -2 13 -5z m-490 -27
c-2 -6 -18 -16 -37 -22 -42 -14 -49 -32 -18 -44 17 -7 18 -10 6 -10 -31 -1
-19 -21 13 -21 21 0 28 4 23 12 -4 7 7 2 24 -11 18 -12 32 -24 32 -25 0 -4
-82 2 -105 7 -11 3 -28 6 -39 6 -16 1 -16 3 5 20 l23 18 -22 12 c-15 8 -22 21
-22 41 0 28 2 29 53 32 59 3 70 1 64 -15z m1537 17 c21 -8 20 -19 -5 -53 -16
-21 -27 -27 -46 -23 -30 6 -37 21 -24 55 11 27 39 35 75 21z m2401 -4 c3 -5 1
-10 -4 -10 -6 0 -11 5 -11 10 0 6 2 10 4 10 3 0 8 -4 11 -10z m-2628 -64 c-4
-10 -16 -12 -47 -6 -62 11 -68 26 -13 29 26 1 50 4 53 7 7 8 13 -15 7 -30z
m-1249 12 c-7 -19 -35 -21 -41 -3 -5 11 0 15 19 15 16 0 24 -5 22 -12z m210
-30 c-6 -18 -13 -48 -15 -65 -4 -24 -11 -33 -24 -33 -25 0 -32 15 -35 77 l-2
53 43 0 44 0 -11 -32z m458 23 c-3 -5 -16 -11 -28 -14 -22 -6 -22 -5 -4 8 22
17 40 20 32 6z m1009 -11 c-3 -5 -10 -10 -16 -10 -5 0 -9 5 -9 10 0 6 7 10 16
10 8 0 12 -4 9 -10z m2324 -17 c-1 -10 -5 -29 -9 -43 -7 -21 -8 -19 -9 18 -1
23 4 42 9 42 6 0 10 -8 9 -17z m-3382 -49 c-2 -3 -16 1 -30 7 -22 10 -24 15
-16 31 10 18 11 18 31 -7 11 -14 18 -28 15 -31z m-71 6 c17 0 25 -27 11 -33
-7 -3 -26 7 -42 20 -29 25 -29 25 -5 19 14 -3 30 -6 36 -6z m884 -50 c0 -66
-5 -70 -54 -45 -15 8 -37 15 -47 15 -12 0 -19 7 -19 19 0 20 25 35 41 25 5 -3
9 4 9 15 0 21 12 29 48 30 20 1 22 -3 22 -59z m-2790 -35 c-32 -34 -40 -31
-40 14 0 66 8 75 37 40 l26 -30 -23 -24z m1401 60 c-1 -15 -24 -12 -29 3 -3 9
2 13 12 10 10 -1 17 -7 17 -13z m-391 -25 c0 -5 -7 -7 -15 -4 -8 4 -15 8 -15
10 0 2 7 4 15 4 8 0 15 -4 15 -10z m-3330 -9 c0 -5 3 -16 6 -25 4 -10 1 -16
-9 -16 -20 0 -30 17 -23 35 6 16 26 21 26 6z m1629 -10 c8 -14 6 -25 -10 -45
-23 -29 -44 -33 -53 -10 -6 15 30 72 46 73 4 1 12 -8 17 -18z m1875 -38 c16
-10 -19 -23 -65 -23 -46 0 -86 23 -57 33 7 2 2 2 -12 0 -14 -2 -43 3 -65 12
l-40 15 48 -6 c40 -5 46 -4 41 10 -5 13 7 11 67 -10 41 -14 78 -28 83 -31z
m4010 33 c-3 -7 -17 -19 -32 -26 l-27 -12 25 25 c28 28 42 33 34 13z m-5039
-16 c8 -13 -5 -13 -25 0 -13 8 -13 10 2 10 9 0 20 -4 23 -10z m1127 -42 c2 -6
20 -11 40 -10 19 1 43 -5 53 -12 15 -11 16 -15 4 -33 -13 -21 -13 -21 -37 -2
-14 10 -33 19 -43 19 -10 0 -21 5 -24 10 -3 6 -15 10 -26 10 -10 0 -19 -4 -19
-10 0 -5 -16 -10 -35 -10 -19 0 -35 5 -35 11 0 7 10 9 25 5 20 -5 25 -3 25 14
0 16 7 20 34 20 19 0 36 -5 38 -12z m1518 -18 l0 -30 -66 0 c-63 0 -139 15
-158 31 -4 4 32 10 80 14 78 5 106 8 137 14 4 0 7 -12 7 -29z m-1316 -24 c25
-19 43 -36 40 -39 -3 -2 15 -8 38 -12 l43 -7 -33 -14 c-23 -10 -49 -12 -83 -8
-48 6 -49 7 -33 25 16 18 16 19 -9 19 -33 0 -55 34 -36 56 16 20 23 18 73 -20z
m3408 -26 c-1 -19 -6 -37 -10 -40 -4 -3 -20 -24 -35 -48 -27 -41 -27 -43 -10
-69 10 -15 25 -45 33 -67 10 -26 26 -46 43 -54 31 -15 34 -33 10 -73 -16 -27
-16 -29 2 -49 10 -11 29 -20 42 -20 12 0 23 -5 23 -12 0 -22 372 -760 386
-765 20 -7 17 -26 -6 -56 l-20 -26 22 -6 c13 -4 33 -16 44 -27 13 -12 32 -18
50 -16 20 2 29 -2 32 -14 2 -12 -13 -24 -53 -44 l-57 -26 28 -19 c16 -10 38
-16 50 -13 16 4 26 -2 42 -28 11 -18 24 -45 27 -60 4 -17 14 -28 24 -28 29 0
236 -184 226 -200 -7 -11 -40 -6 -98 16 -51 19 -57 18 -57 -11 0 -14 -4 -25
-10 -25 -5 0 -10 10 -10 23 0 36 -12 44 -70 52 -73 10 -85 17 -112 72 l-23 46
-3 -41 c-2 -28 -9 -45 -21 -52 -15 -8 -18 -18 -14 -54 4 -31 1 -51 -11 -67
l-15 -23 -16 37 c-8 20 -15 51 -15 69 0 37 -6 48 -35 64 -11 6 -29 28 -39 49
l-20 39 -12 -31 c-7 -17 -20 -33 -29 -36 -8 -4 -15 -17 -15 -31 0 -14 -4 -27
-9 -30 -11 -7 -21 17 -21 49 0 19 -7 24 -40 29 -23 3 -43 12 -46 20 -3 7 20
38 50 70 31 31 56 65 56 74 0 20 -66 148 -81 157 -5 4 -9 25 -10 48 -1 36 -7
47 -43 79 l-42 37 -142 2 c-137 2 -143 1 -162 -21 -11 -13 -20 -27 -20 -32 0
-4 -36 -8 -80 -8 -55 0 -80 4 -80 12 0 30 -45 -40 -47 -72 0 -19 -9 -55 -18
-80 -34 -91 -33 -99 34 -167 36 -36 57 -65 50 -68 -6 -4 -30 -4 -54 -1 -23 4
-54 4 -68 1 -21 -6 -25 -13 -25 -46 -1 -21 -4 -44 -7 -49 -11 -17 -37 11 -31
33 10 38 -10 64 -55 71 -49 8 -69 21 -69 46 0 10 -6 20 -13 23 -20 7 -79 -52
-87 -87 l-6 -31 -17 33 c-10 17 -24 32 -31 32 -12 0 -26 28 -26 56 0 6 23 25
50 43 28 18 50 35 50 39 0 33 32 176 43 194 8 13 20 61 26 108 7 47 18 110 26
140 26 100 67 285 70 315 2 17 15 80 30 140 14 61 33 148 42 194 l17 84 -49
43 c-28 24 -58 46 -67 50 -13 4 -18 16 -18 39 0 40 1 40 120 50 75 7 215 29
405 65 127 24 131 23 127 -20z m-6532 10 c52 -6 122 -15 155 -20 33 -5 120
-12 193 -16 75 -4 136 -12 139 -18 4 -6 9 -26 13 -46 5 -33 8 -35 45 -38 28
-3 53 -15 85 -40 25 -20 47 -40 48 -44 2 -5 10 -8 18 -8 9 0 14 -11 14 -29 0
-15 9 -40 21 -55 20 -25 20 -28 5 -124 -26 -168 -36 -242 -36 -264 0 -12 -16
-56 -37 -97 -36 -76 -36 -76 -115 -114 -43 -20 -78 -44 -78 -51 0 -17 -56 -66
-76 -66 -8 0 -19 -11 -24 -25 -11 -29 -26 -32 -34 -7 -5 14 -19 17 -80 18 -58
2 -76 -1 -80 -13 -5 -12 -12 -10 -37 11 -17 14 -34 26 -39 26 -5 0 -15 3 -23
6 -10 3 -21 -9 -36 -38 -39 -78 -61 -97 -61 -53 0 26 -29 40 -66 33 -20 -3
-59 -118 -74 -214 -4 -28 -13 -60 -18 -71 -6 -10 -14 -46 -17 -79 l-7 -60 40
-27 c22 -14 52 -39 66 -54 34 -37 20 -51 -61 -59 l-61 -7 -11 -43 c-7 -27 -17
-44 -26 -44 -15 0 -18 6 -19 50 -1 21 -5 25 -30 22 -17 -2 -26 0 -22 6 3 6 2
13 -3 16 -20 13 -40 -8 -52 -56 -8 -28 -19 -53 -26 -55 -8 -3 -13 -22 -13 -45
0 -32 -3 -39 -17 -36 -27 5 -29 54 -4 70 25 15 29 68 6 68 -40 0 -241 -33
-251 -41 -6 -5 -11 -20 -11 -34 0 -29 -22 -84 -39 -102 -25 -26 -33 -13 -27
42 4 33 2 55 -4 55 -26 0 -73 -24 -73 -37 0 -8 -4 -11 -10 -8 -5 3 -10 17 -10
30 0 17 15 34 53 61 28 21 61 46 72 56 46 40 120 98 127 99 5 1 13 2 20 3 7 0
16 19 20 41 20 102 30 124 59 134 41 14 41 57 0 66 -34 7 -55 29 -48 49 3 7
25 19 49 26 44 13 44 14 26 32 -23 23 -21 33 28 198 19 63 48 178 64 255 43
203 74 327 87 350 6 11 14 56 17 100 3 44 13 107 21 140 l14 60 -44 43 c-25
23 -45 47 -45 52 0 6 -4 10 -10 10 -5 0 -10 5 -10 11 0 9 26 10 94 5 65 -4 97
-3 101 5 4 6 20 8 39 5 17 -3 74 -10 126 -16z m2765 10 c4 -6 -14 -10 -47 -9
-49 2 -50 2 -18 9 52 11 58 11 65 0z m1852 -83 c4 -8 28 -22 53 -30 74 -26
113 -48 102 -59 -7 -7 -27 -5 -60 7 l-50 18 -28 -26 c-27 -25 -33 -27 -94 -21
-36 3 -72 8 -80 11 -8 4 -31 7 -50 7 -31 1 -35 4 -38 30 -8 68 -5 71 122 74
92 3 116 1 123 -11z m977 -6 c3 -5 -1 -14 -8 -20 -16 -13 -32 2 -21 19 8 12
22 13 29 1z m-4464 -126 c107 -8 201 -15 208 -15 25 0 10 -46 -28 -85 -22 -22
-40 -43 -40 -47 0 -5 -7 -8 -15 -8 -11 0 -15 -13 -16 -57 0 -32 -5 -85 -10
-118 -5 -33 -13 -114 -20 -180 -8 -88 -16 -129 -30 -152 -18 -28 -19 -45 -15
-125 2 -51 0 -127 -6 -168 -5 -41 -11 -106 -12 -143 l-2 -69 38 -26 c21 -15
40 -35 43 -44 3 -9 15 -20 26 -23 10 -4 19 -13 19 -20 0 -15 -33 -21 -174 -30
-48 -3 -92 -8 -97 -11 -5 -3 -9 -25 -9 -50 0 -39 -3 -46 -26 -54 -37 -14 -37
-15 -29 45 l6 55 -68 2 c-37 1 -96 0 -130 -1 -49 -2 -63 0 -63 11 0 11 94 104
130 128 8 5 22 88 25 150 2 19 3 40 4 46 0 6 12 16 26 22 31 14 31 25 4 51
-12 11 -18 24 -15 29 7 11 36 198 40 257 2 22 6 54 10 72 5 21 2 41 -8 62 -21
39 -21 38 18 56 19 9 42 28 51 41 14 22 14 25 1 30 -27 10 -42 55 -34 104 14
95 12 105 -42 159 -50 50 -67 87 -56 117 5 14 15 15 54 10 26 -4 135 -13 242
-21z m3744 19 c32 -12 14 -23 -39 -23 -51 0 -71 11 -42 22 18 8 63 8 81 1z
m591 -3 c8 -14 -16 -63 -46 -91 -46 -44 -46 -51 -22 -203 12 -78 25 -180 29
-227 6 -78 4 -87 -15 -107 -28 -30 -27 -37 13 -70 38 -31 36 -23 75 -360 15
-128 18 -144 41 -163 14 -12 36 -26 49 -31 18 -7 22 -14 17 -32 -3 -12 -6 -33
-6 -46 0 -23 -2 -23 -50 -17 l-50 7 -6 -41 c-4 -22 -11 -43 -16 -46 -16 -10
-38 17 -38 46 0 22 -6 30 -29 38 -16 6 -34 20 -40 31 -17 32 -40 15 -43 -32
-2 -30 -8 -43 -20 -45 -14 -3 -18 3 -18 26 0 35 -22 42 -131 42 -62 0 -69 2
-69 20 0 11 4 20 10 20 5 0 30 21 56 46 l47 45 -12 131 c-9 94 -10 133 -2 141
18 18 13 25 -13 20 -17 -4 -27 1 -35 15 -12 22 -11 23 37 48 24 12 25 14 5 14
-25 0 -28 11 -43 160 -14 140 -33 294 -56 449 -4 21 -12 35 -24 38 -10 3 -24
17 -30 33 -6 15 -22 32 -34 38 -26 12 -41 62 -23 74 7 4 57 8 112 9 115 1 176
5 260 18 84 12 113 12 120 2z m-720 -46 c0 -16 -8 -21 -42 -23 -24 -2 -43 1
-43 7 0 6 -11 6 -30 1 -16 -5 -30 -5 -30 -1 0 16 67 40 105 38 33 -2 40 -6 40
-22z m-2907 -22 l154 -6 -7 -41 c-13 -81 -11 -137 7 -150 9 -7 18 -25 20 -41
2 -21 11 -34 31 -43 15 -8 42 -32 58 -55 17 -23 36 -45 43 -49 8 -4 45 25 100
78 l88 86 -5 72 c-3 59 -1 76 14 94 17 22 21 22 241 20 l223 -3 -3 -25 c-4
-31 -69 -92 -128 -120 -24 -12 -44 -26 -44 -31 0 -4 -6 -6 -14 -3 -19 7 -36
-25 -36 -66 0 -18 -9 -42 -19 -54 -11 -11 -36 -40 -57 -64 -20 -24 -57 -55
-81 -69 -23 -13 -43 -29 -43 -33 0 -5 -16 -29 -35 -54 -19 -26 -35 -53 -35
-62 0 -8 20 -34 45 -57 31 -30 45 -51 45 -69 0 -19 12 -35 40 -58 22 -17 40
-40 40 -50 0 -11 17 -32 37 -47 40 -29 72 -63 73 -75 0 -4 11 -18 25 -32 14
-14 25 -35 25 -46 0 -13 8 -24 20 -27 11 -3 20 -9 20 -14 0 -5 7 -9 15 -9 9 0
18 -7 21 -15 4 -8 18 -15 34 -15 15 0 39 -11 55 -24 26 -22 26 -25 15 -58 -10
-27 -17 -34 -32 -30 -10 2 -16 7 -13 10 3 3 -7 18 -22 34 -18 19 -37 28 -59
28 -27 0 -34 -5 -44 -32 -9 -23 -14 -28 -17 -17 -2 10 -19 19 -44 23 -27 4
-39 11 -39 23 0 32 -61 -39 -73 -86 -18 -66 -56 -66 -57 0 0 18 -6 28 -19 32
-11 2 -21 15 -23 28 -2 18 -8 23 -23 21 -11 -2 -23 -9 -27 -15 -8 -12 -48 -17
-48 -6 0 5 11 25 25 45 26 39 31 59 16 68 -5 4 -12 24 -16 45 -4 25 -16 48
-34 63 -16 12 -31 33 -35 44 -4 14 -18 24 -36 28 -19 3 -34 14 -39 28 -9 23
-51 68 -51 54 0 -3 -11 1 -25 10 -32 21 -51 13 -60 -25 -7 -33 -14 -38 -32
-20 -7 7 -23 9 -37 5 -23 -6 -26 -11 -26 -51 0 -24 5 -47 10 -50 17 -10 11
-22 -27 -59 -36 -34 -38 -38 -36 -94 l2 -59 -44 -32 c-26 -19 -45 -40 -45 -51
0 -10 -4 -30 -10 -45 -9 -22 -13 -24 -31 -15 -16 9 -20 19 -17 41 3 22 0 33
-13 40 -10 5 -19 19 -21 31 -4 30 -36 35 -54 9 -9 -12 -23 -21 -33 -21 -20 0
-41 -19 -41 -36 0 -7 -5 -25 -11 -41 -10 -27 -11 -27 -25 -9 -8 11 -14 30 -14
43 0 22 -3 23 -75 23 -69 0 -75 2 -75 20 0 13 10 24 25 30 14 5 25 14 25 19 0
5 15 12 34 15 18 4 41 15 51 26 10 11 24 20 32 20 7 0 13 4 13 10 0 12 85 100
97 100 15 0 45 61 40 81 -4 14 8 30 44 60 35 29 50 50 55 75 3 19 22 51 43 72
50 54 115 130 119 140 4 14 -99 112 -134 127 -20 8 -35 22 -35 32 -4 50 -6 60
-13 90 -11 43 -31 60 -51 43 -17 -14 -35 -5 -35 18 0 30 -94 122 -124 122 -19
0 -26 5 -26 19 0 11 -11 32 -25 47 -14 15 -23 34 -20 42 3 7 5 21 5 29 0 14
13 15 98 9 53 -3 166 -9 250 -13z m2587 -45 c-4 -18 -14 -37 -22 -43 -9 -5
-29 -21 -46 -34 l-30 -25 8 -90 c10 -129 13 -173 20 -331 4 -77 11 -144 16
-149 12 -13 12 -58 0 -89 -7 -17 -5 -32 5 -52 8 -15 13 -51 12 -84 -1 -31 2
-63 6 -69 5 -9 69 -12 229 -12 203 0 224 2 237 18 33 40 60 82 60 92 0 5 20
10 45 10 38 0 45 -3 45 -20 0 -11 -5 -20 -11 -20 -8 0 -10 -17 -6 -54 3 -29 1
-58 -4 -63 -5 -5 -14 -49 -21 -98 -12 -82 -15 -90 -38 -95 -21 -5 -26 -13 -30
-50 -6 -54 -25 -62 -43 -18 -8 18 -29 45 -47 61 -28 22 -45 27 -92 29 -32 1
-68 2 -80 2 -16 1 -24 -6 -26 -21 -2 -13 -7 -23 -12 -23 -5 0 -10 10 -12 23
-2 16 -11 23 -32 25 -16 2 -36 10 -44 18 -16 17 -42 2 -42 -24 0 -13 -3 -12
-20 3 -11 10 -20 24 -20 32 0 7 -2 13 -4 13 -2 0 -11 3 -19 6 -9 3 -16 -3 -20
-15 -4 -15 -13 -21 -35 -21 -26 0 -31 -5 -41 -42 -6 -24 -15 -50 -21 -58 -9
-13 -11 -13 -20 0 -5 8 -10 27 -10 43 0 15 -5 27 -10 27 -10 0 -20 20 -34 63
-5 16 -9 15 -41 -10 -19 -15 -35 -36 -35 -45 0 -10 -7 -18 -15 -18 -8 0 -15 9
-15 19 0 23 -19 31 -76 31 -37 0 -44 3 -44 20 0 10 9 24 20 30 11 6 30 20 43
33 13 12 40 36 59 54 29 26 34 37 30 60 -3 15 -16 38 -29 50 -20 20 -23 31
-23 104 0 63 4 87 17 101 13 15 14 23 5 44 -7 13 -12 39 -12 57 0 18 -9 46
-19 63 -10 17 -22 44 -25 61 -6 26 -3 33 29 54 19 13 33 29 30 36 -2 7 0 15 6
19 6 3 -3 18 -20 33 -29 26 -31 33 -37 119 -7 88 -8 92 -30 92 -17 0 -25 7
-30 25 -3 14 -12 25 -20 25 -7 0 -21 11 -30 25 -13 21 -15 31 -6 50 11 24 14
25 159 28 81 1 188 4 236 5 l89 2 -7 -32z m-998 2 l353 0 0 -26 c0 -15 10 -66
22 -114 24 -99 20 -135 -16 -142 -19 -4 -34 4 -63 33 -36 35 -42 38 -121 44
-46 4 -86 13 -90 19 -13 23 -44 27 -71 9 -15 -10 -42 -16 -66 -15 -64 3 -66 0
-63 -134 l3 -119 137 1 c109 2 141 5 153 17 8 9 15 20 15 26 0 6 17 11 39 11
l38 0 7 -61 c3 -34 6 -106 6 -160 l0 -99 -26 0 c-17 0 -38 12 -59 36 l-33 36
-125 3 c-68 1 -131 -1 -138 -6 -11 -6 -15 -45 -17 -155 -2 -80 0 -150 5 -154
4 -5 101 -10 214 -11 226 -3 219 -5 264 65 13 20 24 25 56 24 l40 0 -6 -57
c-8 -64 -31 -160 -47 -196 -12 -27 -15 -28 -64 -25 -31 1 -60 -25 -77 -70 -4
-10 -9 -5 -18 17 -8 19 -22 34 -36 38 -13 3 -23 11 -23 19 0 9 -9 12 -27 8
-40 -7 -50 -18 -56 -63 -3 -22 -7 -43 -10 -45 -11 -11 -35 10 -41 36 -6 35
-13 37 -155 45 -108 7 -131 11 -131 26 0 16 -22 9 -42 -13 -10 -12 -16 -28
-13 -35 6 -17 -16 -53 -32 -53 -7 0 -13 12 -13 26 0 14 -7 32 -15 40 -8 9 -16
27 -16 42 -1 15 -3 20 -6 11 -5 -19 -58 -39 -106 -39 -33 0 -37 3 -37 25 0 14
5 25 10 25 6 0 31 19 55 41 l45 42 0 77 c0 57 -4 81 -15 90 -17 14 -20 40 -5
40 6 0 10 71 10 194 l0 194 30 11 c36 12 39 33 7 54 -22 14 -25 25 -30 119 -6
91 -10 105 -30 123 -13 11 -27 29 -31 39 -3 10 -9 16 -13 13 -11 -11 -32 27
-33 57 l0 29 77 -7 c42 -3 235 -6 430 -6z m-4057 -180 c0 -27 -19 -35 -38 -16
-16 16 -16 18 2 31 22 17 36 11 36 -15z m5558 -11 c19 -29 1 -45 -22 -20 -10
11 -15 25 -11 30 9 16 19 13 33 -10z m2086 -155 c18 -7 21 -30 5 -39 -6 -4
-17 1 -24 11 -24 32 -17 42 19 28z m-1319 -95 c4 -11 4 -23 1 -27 -8 -7 -36
30 -30 40 9 14 23 8 29 -13z m1748 -364 c-3 -9 -8 -14 -10 -11 -3 3 -2 9 2 15
9 16 15 13 8 -4z m-7938 -757 c-2 -13 -13 -45 -25 -73 l-21 -50 6 49 c3 27 5
57 5 67 0 9 8 20 18 22 9 3 18 5 19 6 1 0 0 -9 -2 -21z m7580 -52 c9 4 15 -11
20 -56 4 -34 4 -64 1 -68 -12 -11 -26 22 -26 61 0 21 -4 36 -9 33 -5 -3 -8 7
-8 22 0 15 2 22 4 15 2 -7 10 -10 18 -7z m-1188 -129 c4 -4 -3 -10 -15 -14
-27 -7 -29 -23 -3 -23 10 0 25 -7 32 -16 12 -14 9 -20 -21 -46 -19 -16 -47
-40 -63 -54 -24 -22 -35 -25 -85 -22 -55 3 -82 15 -82 37 0 6 4 11 9 11 5 0
14 12 20 28 25 59 176 131 208 99z m-5150 -24 c17 -8 49 -32 70 -54 72 -73 93
-106 93 -146 l0 -27 -35 38 c-19 21 -37 45 -40 55 -6 21 -65 25 -65 5 0 -19
-47 -29 -75 -16 -38 17 -65 45 -65 66 0 10 -11 29 -25 42 -34 32 -32 40 18 52
47 11 77 8 124 -15z m-212 -84 c4 -11 18 -24 31 -29 28 -11 31 -35 6 -49 -25
-13 -72 27 -72 61 0 41 24 53 35 17z m5111 -34 c-16 -25 -36 -33 -36 -16 0 4
10 21 22 36 26 33 38 16 14 -20z m389 -17 c15 -44 11 -50 -20 -38 -18 7 -26 5
-37 -9 -14 -21 -124 -36 -149 -20 -25 15 45 66 101 74 27 4 54 13 61 21 17 21
29 13 44 -28z m-5358 -45 c16 -16 28 -34 26 -40 -8 -23 -41 -13 -64 18 -18 26
-19 33 -8 40 8 5 15 9 15 9 1 0 15 -12 31 -27z m4173 17 c-18 -12 -30 -13 -30
-2 0 4 10 9 22 9 18 2 20 0 8 -7z m-3215 -10 c8 -13 -5 -13 -25 0 -13 8 -13
10 2 10 9 0 20 -4 23 -10z m4390 -65 c29 -6 34 -35 10 -59 -11 -11 -30 -14
-69 -11 -51 4 -55 2 -90 -34 -33 -33 -37 -44 -34 -77 2 -29 -1 -39 -12 -39
-11 0 -15 12 -15 51 0 35 -6 58 -17 71 -38 42 -8 77 35 42 33 -25 40 -24 35 5
-6 28 13 40 43 31 13 -4 19 -1 19 8 0 26 18 28 95 12z m-5422 -11 c25 -8 21
-41 -6 -48 -13 -3 -40 -1 -60 5 -20 5 -43 9 -49 8 -28 -3 -38 2 -38 20 0 11 8
22 18 24 18 5 104 -1 135 -9z m242 -25 c19 -19 19 -19 0 -20 -62 -5 -84 6 -85
39 0 19 59 6 85 -19z m4900 -10 c0 -23 -59 -18 -63 5 -2 10 2 22 9 27 17 10
54 -12 54 -32z m-5075 7 c6 -8 14 -29 16 -45 4 -24 1 -31 -11 -31 -12 0 -15 6
-10 19 4 13 -1 24 -16 34 -11 9 -18 20 -14 26 9 15 20 14 35 -3z m4690 -166
c0 -8 -12 -28 -26 -43 -20 -22 -29 -26 -40 -16 -12 9 -11 15 4 34 9 12 24 32
32 44 15 21 30 12 30 -19z m-3140 15 c20 -24 5 -28 -21 -6 -19 16 -20 20 -8
21 9 0 22 -7 29 -15z m2653 -5 c3 -13 11 -18 20 -14 21 8 30 -11 12 -26 -19
-15 -84 -30 -90 -20 -2 4 -27 5 -55 2 -53 -5 -62 4 -32 30 29 26 71 44 106 46
26 2 35 -2 39 -18z m-4163 -5 c0 -9 -6 -12 -16 -8 -13 5 -13 7 -2 14 17 11 18
11 18 -6z m995 -5 c6 -4 25 -10 44 -14 65 -12 83 -50 29 -59 -21 -3 -47 3 -72
15 -23 12 -48 17 -62 14 -17 -5 -27 -1 -36 14 -13 21 -48 28 -48 10 0 -5 -7
-10 -15 -10 -25 0 -6 26 28 36 33 11 114 7 132 -6z m630 -40 c3 -5 1 -10 -4
-10 -6 0 -11 5 -11 10 0 6 2 10 4 10 3 0 8 -4 11 -10z m2330 -31 c-4 -6 -14
-8 -22 -5 -9 4 -34 -4 -57 -17 -53 -29 -78 -24 -45 9 19 18 35 23 77 23 35 1
51 -3 47 -10z m-3860 -29 c3 -5 -1 -10 -9 -10 -9 0 -16 5 -16 10 0 6 4 10 9
10 6 0 13 -4 16 -10z m1615 -5 c15 -18 7 -31 -12 -19 -7 5 -22 7 -33 6 -15 -2
-17 -1 -6 7 11 7 10 10 -5 14 -12 3 -7 5 12 6 17 0 37 -6 44 -14z m168 8 c-10
-2 -26 -2 -35 0 -10 3 -2 5 17 5 19 0 27 -2 18 -5z m3503 -23 c32 0 59 -4 59
-10 0 -5 -21 -8 -50 -5 -67 5 -92 14 -83 28 5 8 8 8 11 -1 2 -8 26 -12 63 -12z
m-3432 -11 c2 -6 15 -15 29 -20 21 -8 23 -12 12 -19 -8 -6 -30 -10 -47 -10
-26 0 -36 6 -47 29 -9 16 -12 32 -8 35 9 9 56 -3 61 -15z m1786 -22 c-30 -19
-96 -40 -103 -32 -14 13 44 45 83 45 36 0 38 -1 20 -13z m333 1 c-6 -18 -73
-49 -115 -52 -19 -2 -39 -8 -46 -15 -15 -15 -27 -14 -21 3 3 8 13 17 22 20 9
3 24 10 32 15 58 36 136 54 128 29z m-1908 -18 c11 -7 4 -10 -25 -10 -29 0
-36 3 -25 10 8 5 20 10 25 10 6 0 17 -5 25 -10z m2873 -35 c1 -12 -50 -42 -58
-34 -3 4 -1 18 6 32 9 19 16 24 31 18 11 -4 20 -11 21 -16z m-2716 -21 c-3 -3
-12 -4 -19 -1 -8 3 -5 6 6 6 11 1 17 -2 13 -5z m703 -14 c0 -5 -8 -10 -17 -10
-15 0 -16 2 -3 10 19 12 20 12 20 0z m-2810 -64 c0 -8 9 -18 20 -21 11 -3 20
-10 20 -15 0 -4 9 -10 20 -13 23 -6 27 -27 5 -27 -30 0 -64 24 -75 53 -12 37
-12 37 0 37 6 0 10 -6 10 -14z m5155 -36 c-5 -8 -11 -8 -17 -2 -6 6 -7 16 -3
22 5 8 11 8 17 2 6 -6 7 -16 3 -22z m-15 -36 c0 -8 -4 -14 -10 -14 -5 0 -10 9
-10 21 0 11 5 17 10 14 6 -3 10 -13 10 -21z m-2687 10 c20 -4 37 -11 37 -16 0
-5 -5 -6 -12 -2 -6 4 -17 -1 -24 -10 -15 -21 -134 -36 -134 -17 0 6 8 11 18
11 11 0 27 9 37 20 20 22 23 23 78 14z m162 -14 c-6 -10 26 -20 65 -19 14 1
76 0 139 -1 78 -2 116 1 121 9 9 15 60 4 67 -15 3 -8 13 -14 23 -14 10 0 23
-7 30 -15 16 -19 8 -19 -95 0 -51 10 -141 16 -245 16 -91 1 -183 3 -204 6 -35
5 -38 7 -23 18 9 6 14 15 10 18 -3 4 22 7 56 7 38 0 60 -4 56 -10z m755 -7 c0
-8 12 -13 30 -13 17 0 30 -4 30 -10 0 -5 -20 -10 -44 -10 -28 0 -52 -7 -69
-20 -14 -11 -32 -20 -41 -20 -9 0 -16 8 -16 20 0 13 7 20 20 20 11 0 20 5 20
11 0 16 31 38 52 36 10 -1 18 -7 18 -14z m-1248 -18 c7 -8 -14 -55 -25 -55 -6
0 -27 42 -27 56 0 6 46 5 52 -1z m-1146 -16 c9 -15 -14 -29 -48 -29 -17 0 -27
5 -25 13 1 8 -12 12 -40 12 -23 0 -45 3 -49 8 -4 4 29 7 74 7 48 0 84 -4 88
-11z m-671 -9 c-3 -5 -16 -10 -28 -10 -18 0 -19 2 -7 10 20 13 43 13 35 0z
m805 -9 c0 -12 -20 -25 -27 -18 -7 7 6 27 18 27 5 0 9 -4 9 -9z m3300 -1 c0
-5 -7 -7 -15 -4 -8 4 -15 8 -15 10 0 2 7 4 15 4 8 0 15 -4 15 -10z m-2255 -30
c3 -5 -1 -10 -9 -10 -8 0 -18 5 -21 10 -3 6 1 10 9 10 8 0 18 -4 21 -10z m129
-30 c16 -17 26 -33 22 -37 -4 -5 -16 2 -26 15 -10 12 -25 22 -34 22 -17 0 -29
14 -19 24 12 12 28 5 57 -24z m2221 0 c-10 -11 -23 -20 -28 -20 -6 0 -2 9 8
20 10 11 23 20 28 20 6 0 2 -9 -8 -20z m-1245 6 c0 -3 -4 -8 -10 -11 -5 -3
-10 -1 -10 4 0 6 5 11 10 11 6 0 10 -2 10 -4z m-1054 -21 c16 -12 17 -14 2
-15 -25 0 -49 11 -42 21 7 13 17 11 40 -6z m2254 -9 c0 -3 -4 -8 -10 -11 -5
-3 -10 -1 -10 4 0 6 5 11 10 11 6 0 10 -2 10 -4z m-40 -30 c0 -3 -4 -8 -10
-11 -5 -3 -10 -1 -10 4 0 6 5 11 10 11 6 0 10 -2 10 -4z"/>
<path d="M5586 9003 c-2 -3 0 -14 7 -24 9 -15 9 -23 -1 -39 -18 -29 -15 -40
13 -40 25 0 33 14 15 25 -16 10 -12 22 10 28 30 8 24 34 -9 45 -16 6 -32 8
-35 5z"/>
<path d="M5485 8940 c-9 -14 3 -30 24 -30 18 0 41 18 41 32 0 12 -58 10 -65
-2z"/>
<path d="M5675 8899 c-12 -19 5 -23 22 -6 16 16 16 17 1 17 -9 0 -20 -5 -23
-11z"/>
<path d="M5660 8851 c0 -15 46 -61 53 -54 12 11 8 31 -9 47 -17 18 -44 21 -44
7z"/>
<path d="M5730 8750 c0 -12 -9 -24 -24 -29 -24 -10 -40 -36 -30 -52 3 -5 22
-7 42 -4 20 2 72 7 114 11 74 5 77 7 80 32 2 22 8 27 31 26 15 0 61 -1 102 -2
l75 -2 0 -74 c0 -41 -4 -78 -10 -81 -5 -3 -10 -13 -10 -21 0 -11 9 -14 38 -12
25 2 37 8 37 18 0 8 12 28 28 44 32 34 34 59 7 93 -11 14 -20 30 -20 34 0 15
71 10 87 -6 21 -22 37 -8 20 18 -14 22 -18 22 -243 19 -126 -2 -233 -8 -238
-13 -15 -14 -53 -11 -70 7 -15 14 -16 14 -16 -6z"/>
<path d="M6320 8719 c0 -7 9 -9 21 -6 34 9 49 -3 55 -44 4 -22 11 -42 15 -45
5 -3 -6 -18 -23 -35 -27 -24 -31 -32 -22 -47 16 -25 44 -28 37 -4 -2 11 3 32
12 46 12 19 16 38 12 66 -3 22 -1 43 4 46 5 3 9 12 9 20 0 11 -14 14 -60 14
-38 0 -60 -4 -60 -11z"/>
<path d="M5575 8633 c-18 -14 -18 -15 -2 -9 10 3 25 6 33 6 8 0 14 5 14 10 0
15 -22 12 -45 -7z"/>
<path d="M5525 8609 c-9 -14 -2 -20 14 -10 8 6 9 11 3 15 -6 3 -14 1 -17 -5z"/>
<path d="M5375 8599 c-4 -6 -4 -13 -1 -16 8 -8 36 5 36 17 0 13 -27 13 -35 -1z"/>
<path d="M5480 8580 c-13 -8 -12 -10 3 -10 9 0 17 5 17 10 0 12 -1 12 -20 0z"/>
<path d="M5340 8560 c-8 -5 -10 -10 -5 -10 6 0 17 5 25 10 8 5 11 10 5 10 -5
0 -17 -5 -25 -10z"/>
<path d="M5550 8439 c0 -4 -10 -11 -22 -14 -103 -30 -152 -77 -155 -150 -1
-31 -6 -49 -13 -47 -7 1 -10 -21 -8 -70 2 -57 6 -73 18 -73 8 0 16 -8 18 -18
5 -27 50 -67 82 -73 16 -4 30 -14 33 -25 5 -17 15 -19 101 -19 79 0 96 3 96
15 0 10 10 15 30 15 17 0 39 9 50 20 11 11 29 20 40 20 11 0 20 7 20 15 0 8 7
15 15 15 9 0 15 9 15 24 0 13 7 26 15 30 8 3 20 17 25 32 9 22 14 25 39 19 26
-6 29 -4 35 32 3 21 6 55 6 76 0 33 -3 37 -25 37 -18 0 -28 7 -35 25 -5 14
-14 25 -20 25 -5 0 -10 6 -10 13 -1 21 -48 67 -69 67 -11 0 -23 4 -26 10 -7
12 -255 11 -255 -1z m364 -144 c3 -8 1 -15 -4 -15 -6 0 -10 7 -10 15 0 8 2 15
4 15 2 0 6 -7 10 -15z m-240 -91 c22 -22 20 -50 -6 -68 -29 -20 -62 -20 -82 0
-21 21 -20 40 4 64 24 24 63 26 84 4z"/>
<path d="M6252 8395 c-7 -14 -12 -41 -12 -60 0 -31 -5 -37 -49 -59 -48 -25
-61 -41 -61 -77 0 -10 -4 -19 -8 -19 -12 0 -2 -154 9 -158 5 -2 9 -10 9 -18 0
-8 5 -14 10 -14 6 0 10 -7 10 -15 0 -8 6 -15 14 -15 8 0 29 -12 47 -27 28 -24
41 -28 93 -27 42 1 63 6 71 18 7 9 17 16 23 16 5 0 20 11 33 25 13 13 29 25
36 25 6 0 14 14 18 30 4 17 11 30 16 30 5 0 9 6 9 14 0 7 6 19 14 25 8 7 16
33 19 59 5 53 -13 182 -25 182 -4 0 -8 11 -8 25 0 18 -5 25 -19 25 -11 0 -21
6 -24 13 -2 8 -31 12 -93 12 -49 0 -96 4 -105 8 -11 6 -19 1 -27 -18z m88
-245 c26 -48 -30 -91 -70 -55 -24 22 -25 33 -3 57 22 24 60 23 73 -2z"/>
<path d="M6125 7925 c3 -16 11 -34 16 -39 15 -16 11 9 -7 40 l-16 29 7 -30z"/>
<path d="M5990 7910 c-19 -16 -41 -30 -47 -30 -7 0 -13 -9 -13 -20 0 -11 -6
-20 -12 -20 -17 0 -53 -40 -62 -67 -8 -26 25 -53 66 -53 21 0 28 5 28 19 0 19
18 31 46 31 8 0 14 -6 14 -13 0 -7 6 -21 13 -30 10 -14 17 -15 48 -6 l36 11
-4 52 c-3 28 -8 60 -13 71 -5 11 -13 34 -18 50 -12 40 -39 42 -82 5z"/>
<path d="M6158 7864 c-12 -11 -9 -104 2 -104 6 0 13 6 15 13 7 18 -9 100 -17
91z"/>
<path d="M5453 7713 c-18 -7 -16 -21 8 -46 11 -12 30 -42 41 -67 l21 -45 10
33 c8 26 7 36 -7 50 -9 10 -16 25 -16 34 0 8 -8 22 -18 31 -20 18 -20 18 -39
10z"/>
<path d="M6129 7637 c-1 -15 -2 -32 -3 -39 -1 -6 4 -13 11 -15 8 -3 11 7 9 32
-4 44 -15 58 -17 22z"/>
<path d="M5632 7608 c-7 -7 -12 -36 -12 -65 0 -53 0 -53 31 -53 l32 0 -6 45
c-5 35 -3 47 8 51 8 4 15 12 15 20 0 17 -51 19 -68 2z"/>
<path d="M5743 7578 c-7 -8 -8 -19 -3 -28 5 -7 4 -24 -1 -38 -5 -14 -8 -26 -7
-27 2 -1 23 -5 47 -9 42 -6 43 -6 37 16 -3 13 -6 31 -6 41 0 9 -6 17 -14 17
-7 0 -20 10 -28 21 -11 18 -16 19 -25 7z"/>
<path d="M5877 7548 c-4 -18 -9 -43 -13 -56 -6 -21 -4 -23 21 -20 22 2 31 10
37 33 11 41 2 75 -21 75 -13 0 -20 -10 -24 -32z"/>
<path d="M1875 8311 c-6 -11 9 -23 19 -14 9 9 7 23 -3 23 -6 0 -12 -4 -16 -9z"/>
<path d="M1780 7710 c0 -5 5 -10 11 -10 5 0 7 5 4 10 -3 6 -8 10 -11 10 -2 0
-4 -4 -4 -10z"/>
<path d="M8638 7983 c7 -3 16 -2 19 1 4 3 -2 6 -13 5 -11 0 -14 -3 -6 -6z"/>
<path d="M8656 7955 c-3 -8 -1 -15 5 -15 6 0 7 -5 4 -10 -7 -11 22 -26 32 -17
3 3 -4 17 -15 31 -16 21 -21 23 -26 11z"/>
<path d="M8477 7718 c11 -23 22 -33 28 -27 6 6 -1 19 -19 37 l-27 27 18 -37z"/>
<path d="M4387 7513 c-4 -3 -7 -13 -7 -20 0 -11 16 -13 72 -11 60 2 73 6 76
21 3 15 -5 17 -66 17 -38 0 -72 -3 -75 -7z"/>
<path d="M5640 6671 c0 -12 5 -21 10 -21 6 0 10 6 10 14 0 8 -4 18 -10 21 -5
3 -10 -3 -10 -14z"/>
<path d="M5105 6359 c-4 -6 -5 -12 -2 -15 7 -7 37 7 37 17 0 13 -27 11 -35 -2z"/>
<path d="M3998 5578 c-41 -45 -34 -64 7 -21 34 36 43 54 28 52 -5 0 -20 -15
-35 -31z"/>
<path d="M4140 5503 c-47 -9 -47 -24 0 -21 25 2 44 7 43 13 -2 12 -11 13 -43
8z"/>
<path d="M4004 5455 c-3 -8 -3 -19 1 -25 8 -13 92 -13 100 0 3 6 -4 10 -17 10
-14 0 -33 7 -44 15 -24 18 -33 19 -40 0z"/>
<path d="M3920 5385 c0 -8 7 -15 15 -15 8 0 15 7 15 15 0 8 -7 15 -15 15 -8 0
-15 -7 -15 -15z"/>
<path d="M4378 5323 c7 -3 16 -2 19 1 4 3 -2 6 -13 5 -11 0 -14 -3 -6 -6z"/>
<path d="M4425 5300 c-4 -6 12 -10 39 -10 33 0 46 -4 46 -14 0 -20 26 -27 58
-15 25 10 26 12 7 19 -11 5 -30 9 -42 9 -13 1 -23 6 -23 11 0 6 -18 10 -39 10
-22 0 -43 -4 -46 -10z"/>
<path d="M4640 5250 c-11 -7 1 -10 40 -9 40 0 49 3 35 9 -27 12 -57 12 -75 0z"/>
<path d="M4850 5181 c0 -23 22 -40 28 -23 2 7 16 12 30 12 l27 1 -25 14 c-36
20 -60 19 -60 -4z"/>
<path d="M5474 5001 c3 -5 15 -7 26 -4 28 7 25 13 -6 13 -14 0 -23 -4 -20 -9z"/>
<path d="M6758 4633 c7 -3 16 -2 19 1 4 3 -2 6 -13 5 -11 0 -14 -3 -6 -6z"/>
<path d="M7340 4450 c8 -5 22 -10 30 -10 13 0 13 1 0 10 -8 5 -22 10 -30 10
-13 0 -13 -1 0 -10z"/>
<path d="M7410 4430 c0 -5 9 -10 21 -10 11 0 17 5 14 10 -3 6 -13 10 -21 10
-8 0 -14 -4 -14 -10z"/>
<path d="M7625 4350 c17 -5 57 -18 89 -29 65 -23 96 -26 96 -11 0 6 -14 10
-30 10 -17 0 -56 9 -87 20 -32 11 -66 20 -78 19 -14 -1 -11 -4 10 -9z"/>
<path d="M7838 4283 c6 -2 18 -2 25 0 6 3 1 5 -13 5 -14 0 -19 -2 -12 -5z"/>
<path d="M8154 3524 c-3 -10 -10 -30 -14 -44 -5 -14 -11 -54 -14 -90 -6 -73
-18 -149 -35 -230 -26 -121 -31 -147 -37 -202 l-7 -58 62 0 c33 0 61 3 61 8 0
4 13 21 28 39 28 31 32 32 130 39 70 5 102 11 102 19 0 28 -32 99 -50 112 -11
8 -20 28 -22 51 -2 27 -9 40 -26 47 -18 8 -21 15 -16 40 4 25 0 35 -25 58 -23
20 -31 36 -31 62 0 27 -4 35 -18 35 -17 0 -42 36 -42 60 0 5 -9 24 -20 42 -17
28 -20 30 -26 12z"/>
<path d="M1956 3669 c-2 -8 -18 -95 -36 -194 -17 -99 -40 -222 -50 -272 -11
-51 -20 -106 -20 -123 l0 -30 70 0 c53 0 70 3 70 14 0 16 30 26 85 26 73 0
111 11 121 33 5 12 24 26 42 32 17 5 32 12 32 15 0 3 17 24 38 47 36 38 39 47
45 118 4 42 12 85 17 96 8 14 7 30 -2 57 -18 51 -45 79 -93 94 -24 8 -44 22
-50 36 -12 26 -16 28 -120 42 -44 6 -95 13 -112 17 -23 3 -34 1 -37 -8z"/>
</g>
</svg>
